<?xml version="1.0" encoding="UTF-8"?><svg id="a" xmlns="http://www.w3.org/2000/svg" viewBox="0 0 1000 1000"><path d="M528.33,766.76c3.94,0,7.45-1.81,9.78-4.62h-19.56c2.33,2.81,5.84,4.62,9.78,4.62Z" style="fill:none;"/><path d="M579.79,794.32c0,6.89-5.61,12.5-12.5,12.5H111.53c-6.89,0-12.5-5.61-12.5-12.5v-78.84c0-3.87,1.77-7.34,4.55-9.64v-27.38c-2.77-2.29-4.55-5.76-4.55-9.64v-223.54c0-3.87,1.77-7.34,4.55-9.64v-47.65c-1.53-.86-2.57-2.47-2.57-4.35s1.05-3.49,2.57-4.35v-57.95h-45.7v515.36c0,9.79,7.96,17.75,17.75,17.75h790.52c9.79,0,17.75-7.96,17.75-17.75v-74.58h-304.1v32.18ZM686.07,774.2h107.5c2.76,0,5,2.24,5,5s-2.24,5-5,5h-107.5c-2.76,0-5-2.24-5-5s2.24-5,5-5ZM642.57,767.46c6.47,0,11.74,5.27,11.74,11.74s-5.27,11.74-11.74,11.74-11.74-5.27-11.74-11.74,5.27-11.74,11.74-11.74Z" style="fill:none;"/><path d="M94.11,299.47c4.09,0,7.65-2.3,9.46-5.67v-10.15c-1.81-3.37-5.37-5.67-9.46-5.67-5.92,0-10.74,4.82-10.74,10.74s4.82,10.74,10.74,10.74Z" style="fill:none;"/><path d="M528.33,770.04c-5.87,0-10.99-3.18-13.78-7.89H134.1c-15.08,0-27.6-10.94-30.08-25.31v57.49c0,4.14,3.36,7.5,7.5,7.5h455.77c4.14,0,7.5-3.36,7.5-7.5v-32.18h-32.68c-2.78,4.72-7.9,7.89-13.78,7.89Z" style="fill:none;"/><path d="M920.81,136.65H162.17c-16.68,0-30.19,13.52-30.19,30.19v36.58c.7-.05,1.41-.08,2.13-.08h806.9v463.04c0,6.42,9.66,6.77,9.96.36.02-.49.04-.98.04-1.48V166.84c0-16.68-13.52-30.19-30.19-30.19ZM171.05,182.25c-7.26,1.2-13.48-5.02-12.27-12.27.73-4.4,4.27-7.94,8.67-8.67,7.26-1.2,13.47,5.02,12.27,12.27-.73,4.4-4.27,7.94-8.67,8.67ZM204.54,182.25c-7.26,1.2-13.48-5.02-12.27-12.27.73-4.4,4.27-7.94,8.67-8.67,7.26-1.2,13.47,5.02,12.27,12.27-.73,4.4-4.27,7.94-8.67,8.67ZM238.1,182.25c-7.26,1.2-13.48-5.02-12.27-12.27.73-4.4,4.27-7.94,8.67-8.67,7.26-1.2,13.47,5.02,12.27,12.27-.73,4.4-4.27,7.94-8.67,8.67Z" style="fill:#cae3f4;"/><path d="M104.85,288.73c0-1.83-.46-3.56-1.28-5.07v10.15c.81-1.51,1.28-3.24,1.28-5.07Z" style="fill:#fff;"/><path d="M528.3,753.52c3.1,0,5.61-2.51,5.61-5.61s-2.51-5.61-5.61-5.61-5.61,2.51-5.61,5.61,2.51,5.61,5.61,5.61Z" style="fill:#fff;"/><path d="M538.6,761.56c.21-.28.25-.65.1-.97-1.09-2.38-3.11-4.24-5.59-5.13-.28-.1-.6-.07-.86.07-1.18.62-2.52.98-3.95.98s-2.75-.35-3.92-.96c-.27-.14-.58-.17-.86-.06-2.46.89-4.46,2.75-5.55,5.12-.15.32-.1.69.1.97.15.2.32.39.48.58h19.56c.16-.19.33-.38.48-.58Z" style="fill:#fff;"/><path d="M135.34,754.04c0-2.76,2.24-5,5-5h170c2.76,0,5,2.24,5,5h0c0,2.76-2.24,5-5,5h-170c-2.76,0-5-2.24-5-5h0Z" style="fill:#fff;"/><path d="M528.31,497.25c4.21,0,7.95-2.05,10.26-5.2.21-.28.25-.65.1-.97-1.09-2.38-3.11-4.24-5.59-5.13-.28-.1-.6-.07-.86.07-1.18.62-2.52.98-3.95.98s-2.75-.35-3.92-.96c-.27-.14-.58-.17-.86-.06-2.46.89-4.46,2.75-5.55,5.12-.14.32-.1.69.1.97,2.32,3.15,6.05,5.2,10.26,5.2Z" style="fill:#fff;"/><path d="M528.27,484.02c3.1,0,5.61-2.51,5.61-5.61s-2.51-5.61-5.61-5.61-5.61,2.51-5.61,5.61,2.51,5.61,5.61,5.61Z" style="fill:#fff;"/><path d="M892.77,279.26c0-14.68-11.94-26.62-26.62-26.62H75.62c-14.68,0-26.62,11.94-26.62,26.62v557.46c0,14.68,11.94,26.62,26.62,26.62h790.52c14.68,0,26.62-11.94,26.62-26.62V279.26ZM161.22,277.99c5.92,0,10.74,4.82,10.74,10.74s-4.82,10.74-10.74,10.74-10.74-4.82-10.74-10.74,4.82-10.74,10.74-10.74ZM127.67,277.99c5.92,0,10.74,4.82,10.74,10.74s-4.82,10.74-10.74,10.74-10.74-4.82-10.74-10.74,4.82-10.74,10.74-10.74ZM94.11,277.99c4.09,0,7.65,2.3,9.46,5.67.81,1.51,1.28,3.24,1.28,5.07s-.46,3.56-1.28,5.07c-1.81,3.37-5.37,5.67-9.46,5.67-5.92,0-10.74-4.82-10.74-10.74s4.82-10.74,10.74-10.74ZM883.89,836.73c0,9.79-7.96,17.75-17.75,17.75H75.62c-9.79,0-17.75-7.96-17.75-17.75V321.36h826.02v515.36Z" style="fill:#0070ba;"/><path d="M686.07,784.2h107.5c2.76,0,5-2.24,5-5s-2.24-5-5-5h-107.5c-2.76,0-5,2.24-5,5s2.24,5,5,5Z" style="fill:#0070ba;"/><path d="M642.57,786.94c4.27,0,7.74-3.47,7.74-7.74s-3.47-7.74-7.74-7.74-7.74,3.47-7.74,7.74,3.47,7.74,7.74,7.74Z" style="fill:#9fcde0;"/><path d="M642.57,790.94c6.47,0,11.74-5.27,11.74-11.74s-5.27-11.74-11.74-11.74-11.74,5.27-11.74,11.74,5.27,11.74,11.74,11.74ZM642.57,771.46c4.27,0,7.74,3.47,7.74,7.74s-3.47,7.74-7.74,7.74-7.74-3.47-7.74-7.74,3.47-7.74,7.74-7.74Z" style="fill:#0070ba;"/><path d="M829.29,724.32h-143.22c-2.76,0-5,2.24-5,5s2.24,5,5,5h143.22c2.76,0,5-2.24,5-5s-2.24-5-5-5Z" style="fill:#0070ba;"/><path d="M650.31,728.59c0-4.27-3.47-7.74-7.74-7.74s-7.74,3.47-7.74,7.74,3.47,7.74,7.74,7.74,7.74-3.47,7.74-7.74Z" style="fill:#9fcde0;"/><path d="M642.57,716.85c-6.47,0-11.74,5.27-11.74,11.74s5.27,11.74,11.74,11.74,11.74-5.27,11.74-11.74-5.27-11.74-11.74-11.74ZM634.83,728.59c0-4.27,3.47-7.74,7.74-7.74s7.74,3.47,7.74,7.74-3.47,7.74-7.74,7.74-7.74-3.47-7.74-7.74Z" style="fill:#0070ba;"/><path d="M101,383.66c0,1.88,1.05,3.49,2.57,4.35.72.4,1.54.65,2.43.65h124.3c2.76,0,5-2.24,5-5s-2.24-5-5-5h-124.3c-.89,0-1.71.25-2.43.65-1.53.86-2.57,2.47-2.57,4.35Z" style="fill:#0070ba;"/><path d="M282.02,378.66h-27.25c-2.76,0-5,2.24-5,5s2.24,5,5,5h27.25c2.76,0,5-2.24,5-5s-2.24-5-5-5Z" style="fill:#0070ba;"/><path d="M724.26,567h65.16v29.44c0,3.05,3.69,4.58,5.85,2.42l39.73-39.73c1.34-1.34,1.34-3.51,0-4.85l-39.73-39.73c-2.16-2.16-5.85-.63-5.85,2.42v29.44h-65.16c-35.98,0-65.16-29.17-65.16-65.16s29.17-65.16,65.16-65.16,65.16,29.17,65.16,65.16c0,5.68,4.61,10.29,10.29,10.29s10.29-4.61,10.29-10.29c0-47.35-38.38-85.73-85.73-85.73s-85.73,38.38-85.73,85.73,38.38,85.73,85.73,85.73Z" style="fill:#66cb92;"/><path d="M99.03,445.29v223.54c0,3.87,1.77,7.34,4.55,9.64,2.16,1.79,4.94,2.86,7.95,2.86h455.77c6.89,0,12.5-5.61,12.5-12.5v-223.54c0-6.89-5.61-12.5-12.5-12.5H111.53c-3.02,0-5.79,1.08-7.95,2.86-2.77,2.29-4.55,5.76-4.55,9.64ZM574.79,668.84c0,4.14-3.36,7.5-7.5,7.5H111.53c-4.14,0-7.5-3.36-7.5-7.5v-99.58h470.77v99.58ZM104.03,445.29c0-4.14,3.36-7.5,7.5-7.5h455.77c4.14,0,7.5,3.36,7.5,7.5v118.28H104.03v-118.28Z" style="fill:#cae3f4;"/><path d="M99.03,715.49v78.84c0,6.89,5.61,12.5,12.5,12.5h455.77c6.89,0,12.5-5.61,12.5-12.5v-78.84c0-6.89-5.61-12.5-12.5-12.5H111.53c-3.02,0-5.79,1.08-7.95,2.86-2.77,2.29-4.55,5.76-4.55,9.64ZM111.53,707.99h455.77c4.14,0,7.5,3.36,7.5,7.5v78.84c0,4.14-3.36,7.5-7.5,7.5H111.53c-4.14,0-7.5-3.36-7.5-7.5v-78.84c0-4.14,3.36-7.5,7.5-7.5Z" style="fill:#cae3f4;"/><path d="M528.31,500.53c8.84,0,16-7.16,16-16s-7.16-16-16-16-16,7.16-16,16,7.16,16,16,16ZM528.27,472.8c3.1,0,5.61,2.51,5.61,5.61s-2.51,5.61-5.61,5.61-5.61-2.51-5.61-5.61,2.51-5.61,5.61-5.61ZM517.94,491.08c1.08-2.36,3.08-4.22,5.55-5.12.28-.1.6-.08.86.06,1.17.62,2.51.96,3.92.96s2.77-.35,3.95-.98c.27-.14.58-.17.86-.07,2.48.89,4.5,2.75,5.59,5.13.15.32.1.69-.1.97-2.32,3.15-6.05,5.2-10.26,5.2s-7.95-2.05-10.26-5.2c-.21-.28-.25-.65-.1-.97Z" style="fill:#0070ba;"/><path d="M528.33,770.04c5.87,0,10.99-3.18,13.78-7.89,1.4-2.38,2.22-5.14,2.22-8.11,0-8.84-7.16-16-16-16s-16,7.16-16,16c0,2.96.82,5.73,2.22,8.11,2.78,4.72,7.9,7.89,13.78,7.89ZM528.3,742.31c3.1,0,5.61,2.51,5.61,5.61s-2.51,5.61-5.61,5.61-5.61-2.51-5.61-5.61,2.51-5.61,5.61-5.61ZM518.07,761.56c-.21-.28-.25-.65-.1-.97,1.08-2.36,3.08-4.22,5.55-5.12.28-.1.6-.08.86.06,1.17.62,2.51.96,3.92.96s2.77-.35,3.95-.98c.27-.14.58-.17.86-.07,2.48.89,4.5,2.75,5.59,5.13.15.32.1.69-.1.97-.15.2-.32.39-.48.58-2.33,2.81-5.84,4.62-9.78,4.62s-7.45-1.81-9.78-4.62c-.16-.19-.33-.38-.48-.58Z" style="fill:#0070ba;"/><path d="M139.62,489.53h170c2.76,0,5-2.24,5-5s-2.24-5-5-5h-170c-2.76,0-5,2.24-5,5s2.24,5,5,5Z" style="fill:#0070ba;"/><path d="M279.82,514.44h-140c-2.76,0-5,2.24-5,5s2.24,5,5,5h140c2.76,0,5-2.24,5-5s-2.24-5-5-5Z" style="fill:#cae3f4;"/><path d="M138.92,609.75h165c2.76,0,5-2.24,5-5s-2.24-5-5-5h-165c-2.76,0-5,2.24-5,5s2.24,5,5,5Z" style="fill:#cae3f4;"/><path d="M138.92,644.82h230c2.76,0,5-2.24,5-5s-2.24-5-5-5h-230c-2.76,0-5,2.24-5,5s2.24,5,5,5Z" style="fill:#cae3f4;"/><rect x="135.34" y="749.04" width="180" height="10" rx="5" ry="5" style="fill:#0070ba;"/><path d="M793.66,683.99c2.76,0,5-2.24,5-5s-2.24-5-5-5h-107.5c-2.76,0-5,2.24-5,5s2.24,5,5,5h107.5Z" style="fill:#0070ba;"/><path d="M634.92,678.99c0,4.27,3.47,7.74,7.74,7.74s7.74-3.47,7.74-7.74-3.47-7.74-7.74-7.74-7.74,3.47-7.74,7.74Z" style="fill:#9fcde0;"/><path d="M642.66,690.73c6.47,0,11.74-5.27,11.74-11.74s-5.27-11.74-11.74-11.74-11.74,5.27-11.74,11.74,5.27,11.74,11.74,11.74ZM650.4,678.99c0,4.27-3.47,7.74-7.74,7.74s-7.74-3.47-7.74-7.74,3.47-7.74,7.74-7.74,7.74,3.47,7.74,7.74Z" style="fill:#0070ba;"/></svg>