<?xml version="1.0" encoding="UTF-8"?><svg id="a" xmlns="http://www.w3.org/2000/svg" viewBox="0 0 1000 1000"><path d="M939.21,213.37v553.75c0,11.03-8.97,20-20,20H60.79v.37c0,13.81,11.19,25,25,25h848.52c13.81,0,25-11.19,25-25V237.88c0-12.13-8.64-22.24-20.11-24.52Z" style="fill:#cae3f4;"/><path d="M939.21,767.12V197.51c0-11.03-8.97-20-20-20H50.69c-11.03,0-20,8.97-20,20v569.6c0,11.03,8.97,20,20,20h868.52c11.03,0,20-8.97,20-20ZM40.69,767.12V197.51c0-5.51,4.49-10,10-10h868.52c5.51,0,10,4.49,10,10v569.6c0,5.51-4.49,10-10,10H50.69c-5.51,0-10-4.49-10-10Z" style="fill:#0070ba;"/><path d="M235.35,287.52c-.59.3-1.01.65-1.26,1.05-.25.4-.37.83-.37,1.3,0,.93.26,1.59.78,1.99.52.4,1.19.6,2.03.6.51,0,.98-.05,1.41-.15.43-.1.84-.24,1.22-.44s.75-.43,1.11-.72c.36-.29.72-.62,1.08-1.01v-3.64c-1.45,0-2.66.1-3.64.29s-1.76.44-2.35.74Z" style="fill:#cae3f4;"/><path d="M168.41,287.52c-.59.3-1.01.65-1.26,1.05s-.37.83-.37,1.3c0,.93.26,1.59.78,1.99.52.4,1.19.6,2.03.6.51,0,.98-.05,1.41-.15.43-.1.84-.24,1.22-.44s.75-.43,1.11-.72c.36-.29.72-.62,1.08-1.01v-3.64c-1.45,0-2.66.1-3.64.29-.97.19-1.76.44-2.35.74Z" style="fill:#cae3f4;"/><path d="M108.46,318.55h195.31c-9.77,0-17.72-7.95-17.72-17.72v-41.73c0-9.77,7.95-17.72,17.72-17.72H108.46c-9.77,0-17.72,7.95-17.72,17.72v41.73c0,9.77,7.95,17.72,17.72,17.72ZM143.98,290.76c-.2.4-.46.7-.79.92-.32.22-.7.33-1.13.33h-.75c-.43,0-.81-.11-1.13-.33-.32-.22-.58-.53-.79-.92l-8.93-17.45c.05.47.09.92.11,1.37.02.44.03.86.03,1.24v19.8h-4.78v-30.65h4.09c.24,0,.45,0,.62.02.17.01.33.05.47.11.14.06.27.15.39.28.12.13.24.3.34.51l8.71,17.02c.23.45.44.92.63,1.41.2.49.39.98.58,1.47.19-.51.38-1.01.58-1.51.2-.49.42-.97.65-1.42l8.63-16.98c.11-.21.22-.38.33-.51.11-.13.24-.22.38-.28.14-.06.3-.09.47-.11s.38-.02.62-.02h4.09v30.65h-4.78v-19.8c0-.37,0-.77.03-1.21s.05-.88.09-1.34l-8.81,17.38ZM173.52,278.76c-.58-.7-1.43-1.06-2.55-1.06-.81,0-1.48.1-2.02.3-.54.2-1,.42-1.4.67-.4.25-.76.47-1.1.67-.34.2-.71.3-1.11.3-.34,0-.62-.09-.87-.28-.24-.18-.44-.41-.58-.68l-.91-1.67c2.38-2.29,5.25-3.43,8.61-3.43,1.21,0,2.29.21,3.24.63.95.42,1.75,1,2.41,1.74s1.16,1.63,1.5,2.66c.34,1.03.51,2.16.51,3.39v13.74h-2.24c-.47,0-.84-.07-1.11-.22s-.47-.45-.6-.9l-.44-1.55c-.52.49-1.04.93-1.54,1.3s-1.03.69-1.56.94-1.11.44-1.71.57c-.6.13-1.28.19-2.02.19-.87,0-1.68-.12-2.42-.37-.74-.25-1.37-.62-1.9-1.12-.53-.5-.94-1.11-1.24-1.85-.3-.74-.44-1.6-.44-2.57,0-.82.2-1.63.61-2.44s1.09-1.52,2.05-2.17c.95-.65,2.22-1.18,3.81-1.61,1.58-.43,3.55-.64,5.91-.64v-1.28c0-1.47-.29-2.55-.88-3.26ZM196.32,278.79c-.58-.73-1.46-1.09-2.63-1.09-.86,0-1.67.21-2.42.61-.75.41-1.46.97-2.14,1.67v15.73h-4.98v-21.75h3.04c.65,0,1.07.32,1.27.95l.34,1.72c.42-.45.86-.86,1.32-1.23.46-.37.95-.69,1.47-.95.52-.27,1.07-.47,1.66-.61.59-.14,1.24-.21,1.93-.21,1.13,0,2.13.2,3,.6.87.4,1.6.97,2.19,1.7.58.73,1.03,1.6,1.33,2.61.3,1.01.45,2.12.45,3.34v13.84h-4.98v-13.84c0-1.33-.29-2.36-.88-3.08ZM212.5,290.87c.58.73,1.46,1.09,2.63,1.09.86,0,1.67-.2,2.42-.6.75-.4,1.46-.96,2.14-1.66v-15.73h4.98v21.75h-3.04c-.64,0-1.07-.32-1.27-.95l-.34-1.74c-.43.45-.87.87-1.33,1.24-.46.37-.94.69-1.46.95-.52.26-1.08.47-1.67.61-.6.15-1.24.22-1.92.22-1.13,0-2.13-.2-2.99-.6-.87-.4-1.6-.97-2.19-1.71-.59-.73-1.04-1.61-1.34-2.62-.3-1.01-.45-2.12-.45-3.34v-13.82h4.98v13.82c0,1.33.29,2.36.88,3.08ZM240.46,278.76c-.58-.7-1.43-1.06-2.55-1.06-.81,0-1.48.1-2.02.3-.54.2-1,.42-1.4.67-.4.25-.76.47-1.1.67-.34.2-.71.3-1.11.3-.34,0-.62-.09-.87-.28-.24-.18-.44-.41-.58-.68l-.91-1.67c2.38-2.29,5.25-3.43,8.61-3.43,1.21,0,2.29.21,3.23.63.95.42,1.75,1,2.41,1.74.66.74,1.16,1.63,1.5,2.66.34,1.03.51,2.16.51,3.39v13.74h-2.24c-.47,0-.84-.07-1.11-.22-.27-.15-.47-.45-.61-.9l-.44-1.55c-.52.49-1.04.93-1.54,1.3s-1.02.69-1.56.94c-.54.25-1.11.44-1.71.57-.6.13-1.28.19-2.01.19-.87,0-1.68-.12-2.42-.37-.74-.25-1.37-.62-1.91-1.12-.53-.5-.94-1.11-1.24-1.85s-.44-1.6-.44-2.57c0-.82.21-1.63.62-2.44.41-.8,1.09-1.52,2.04-2.17.95-.65,2.22-1.18,3.81-1.61,1.59-.43,3.55-.64,5.91-.64v-1.28c0-1.47-.29-2.55-.88-3.26ZM251.41,295.72v-31.5h4.98v31.5h-4.98Z" style="fill:#cae3f4;"/><path d="M152.67,275.92v19.8h4.78v-30.65h-4.09c-.24,0-.45,0-.62.02s-.33.05-.47.11c-.14.06-.27.15-.38.28-.11.13-.23.3-.33.51l-8.63,16.98c-.23.45-.44.93-.65,1.42-.2.5-.4,1-.58,1.51-.19-.49-.38-.99-.58-1.47-.19-.49-.41-.96-.63-1.41l-8.71-17.02c-.11-.21-.22-.38-.34-.51-.12-.13-.25-.22-.39-.28-.14-.06-.3-.09-.47-.11-.17-.01-.38-.02-.62-.02h-4.09v30.65h4.78v-19.8c0-.38-.01-.79-.03-1.24-.02-.45-.06-.9-.11-1.37l8.93,17.45c.2.4.46.7.79.92.32.22.7.33,1.13.33h.75c.43,0,.81-.11,1.13-.33.32-.22.58-.53.79-.92l8.81-17.38c-.04.45-.07.9-.09,1.34s-.03.84-.03,1.21Z" style="fill:#0070ba;"/><path d="M168.49,283.93c-1.59.43-2.86.96-3.81,1.61-.95.65-1.64,1.37-2.05,2.17s-.61,1.61-.61,2.44c0,.98.15,1.84.44,2.57.29.74.71,1.35,1.24,1.85.53.5,1.17.87,1.9,1.12.74.25,1.54.37,2.42.37.74,0,1.41-.06,2.02-.19.6-.13,1.18-.32,1.71-.57s1.06-.57,1.56-.94,1.02-.81,1.54-1.3l.44,1.55c.13.45.34.75.6.9s.64.22,1.11.22h2.24v-13.74c0-1.23-.17-2.36-.51-3.39-.34-1.03-.84-1.92-1.5-2.66s-1.46-1.32-2.41-1.74c-.95-.42-2.03-.63-3.24-.63-3.36,0-6.23,1.15-8.61,3.43l.91,1.67c.15.27.34.5.58.68.24.18.53.28.87.28.4,0,.77-.1,1.11-.3.34-.2.7-.42,1.1-.67.4-.25.86-.47,1.4-.67.54-.2,1.21-.3,2.02-.3,1.12,0,1.97.35,2.55,1.06.58.71.88,1.79.88,3.26v1.28c-2.35,0-4.32.21-5.91.64ZM174.4,290.14c-.36.39-.72.73-1.08,1.01-.36.29-.73.52-1.11.72s-.79.34-1.22.44c-.43.1-.9.15-1.41.15-.83,0-1.51-.2-2.03-.6-.52-.4-.78-1.06-.78-1.99,0-.47.12-.9.37-1.3s.67-.75,1.26-1.05c.59-.3,1.37-.54,2.35-.74.97-.19,2.19-.29,3.64-.29v3.64Z" style="fill:#0070ba;"/><path d="M202.17,295.72v-13.84c0-1.22-.15-2.33-.45-3.34-.3-1.01-.75-1.88-1.33-2.61-.58-.73-1.31-1.29-2.19-1.7-.87-.4-1.87-.6-3-.6-.7,0-1.34.07-1.93.21-.59.14-1.15.35-1.66.61-.52.27-1.01.59-1.47.95-.46.37-.9.78-1.32,1.23l-.34-1.72c-.2-.64-.62-.95-1.27-.95h-3.04v21.75h4.98v-15.73c.67-.71,1.38-1.26,2.14-1.67.75-.41,1.56-.61,2.42-.61,1.17,0,2.05.36,2.63,1.09.58.73.88,1.76.88,3.08v13.84h4.98Z" style="fill:#0070ba;"/><path d="M206.65,273.97v13.82c0,1.22.15,2.33.45,3.34.3,1.01.75,1.88,1.34,2.62.59.74,1.32,1.3,2.19,1.71.87.4,1.87.6,2.99.6.69,0,1.33-.07,1.92-.22.6-.15,1.16-.35,1.67-.61.52-.26,1-.58,1.46-.95.46-.37.9-.79,1.33-1.24l.34,1.74c.2.64.62.95,1.27.95h3.04v-21.75h-4.98v15.73c-.67.71-1.38,1.26-2.14,1.66-.75.4-1.56.6-2.42.6-1.17,0-2.05-.36-2.63-1.09-.58-.73-.88-1.76-.88-3.08v-13.82h-4.98Z" style="fill:#0070ba;"/><path d="M235.43,283.93c-1.58.43-2.86.96-3.81,1.61-.95.65-1.64,1.37-2.04,2.17-.41.8-.62,1.61-.62,2.44,0,.98.15,1.84.44,2.57s.71,1.35,1.24,1.85c.53.5,1.17.87,1.91,1.12.74.25,1.54.37,2.42.37.74,0,1.41-.06,2.01-.19.61-.13,1.18-.32,1.71-.57.54-.25,1.06-.57,1.56-.94s1.02-.81,1.54-1.3l.44,1.55c.13.45.34.75.61.9.27.15.64.22,1.11.22h2.24v-13.74c0-1.23-.17-2.36-.51-3.39-.34-1.03-.84-1.92-1.5-2.66-.66-.74-1.46-1.32-2.41-1.74-.95-.42-2.03-.63-3.23-.63-3.36,0-6.23,1.15-8.61,3.43l.91,1.67c.15.27.34.5.58.68.24.18.53.28.87.28.4,0,.77-.1,1.11-.3.33-.2.7-.42,1.1-.67.4-.25.86-.47,1.4-.67.54-.2,1.21-.3,2.02-.3,1.12,0,1.96.35,2.55,1.06.58.71.88,1.79.88,3.26v1.28c-2.35,0-4.32.21-5.91.64ZM241.33,290.14c-.36.39-.72.73-1.08,1.01-.36.29-.73.52-1.11.72s-.79.34-1.22.44c-.43.1-.9.15-1.41.15-.83,0-1.51-.2-2.03-.6-.52-.4-.78-1.06-.78-1.99,0-.47.12-.9.37-1.3.25-.4.67-.75,1.26-1.05.59-.3,1.37-.54,2.35-.74s2.19-.29,3.64-.29v3.64Z" style="fill:#0070ba;"/><rect x="251.41" y="264.22" width="4.98" height="31.5" style="fill:#0070ba;"/><path d="M332.22,272.35c-.2-.61-.39-1.28-.58-2-.19.72-.37,1.39-.56,2.01-.18.62-.36,1.17-.54,1.63l-3.56,10.15h9.33l-3.56-10.2c-.16-.45-.34-.99-.54-1.6Z" style="fill:#66cb92;"/><path d="M449.74,287.52c-.59.3-1.01.65-1.26,1.05-.25.4-.37.83-.37,1.3,0,.93.26,1.59.78,1.99.52.4,1.2.6,2.03.6.51,0,.98-.05,1.42-.15.43-.1.84-.24,1.22-.44.38-.19.76-.43,1.11-.72.36-.29.72-.62,1.08-1.01v-3.64c-1.46,0-2.67.1-3.65.29s-1.76.44-2.36.74Z" style="fill:#66cb92;"/><path d="M396.16,292.01c1.73,0,3-.61,3.83-1.82s1.24-3,1.24-5.34-.42-4.13-1.24-5.36-2.11-1.84-3.83-1.84-3.05.62-3.88,1.85c-.84,1.24-1.25,3.02-1.25,5.35s.42,4.11,1.25,5.33c.84,1.22,2.13,1.83,3.88,1.83Z" style="fill:#66cb92;"/><path d="M286.05,259.1v41.73c0,9.77,7.95,17.72,17.72,17.72h219.21c9.77,0,17.72-7.95,17.72-17.72v-41.73c0-9.77-7.95-17.72-17.72-17.72h-219.21c-9.77,0-17.72,7.95-17.72,17.72ZM354.1,290.87c.59.73,1.47,1.09,2.64,1.09.86,0,1.67-.2,2.43-.6.75-.4,1.47-.96,2.14-1.66v-15.73h5v21.75h-3.05c-.65,0-1.07-.32-1.27-.95l-.34-1.74c-.43.45-.88.87-1.33,1.24-.46.37-.95.69-1.47.95-.52.26-1.08.47-1.68.61s-1.24.22-1.93.22c-1.13,0-2.13-.2-3-.6-.87-.4-1.6-.97-2.19-1.71-.59-.73-1.04-1.61-1.34-2.62s-.46-2.12-.46-3.34v-13.82h5v13.82c0,1.33.29,2.36.88,3.08ZM383.32,274.16v3.73h-5.46v11.79c0,.68.16,1.21.49,1.59.32.38.75.57,1.29.57.31,0,.57-.04.78-.12.21-.08.39-.16.55-.24.16-.08.29-.17.42-.24s.24-.12.36-.12c.15,0,.27.04.36.12.09.08.2.19.3.35l1.5,2.54c-.73.64-1.56,1.12-2.51,1.44-.94.33-1.92.49-2.93.49-1.79,0-3.18-.53-4.15-1.6s-1.46-2.54-1.46-4.42v-12.15h-2.1c-.27,0-.5-.09-.7-.28-.2-.18-.29-.46-.29-.83v-2.08l3.34-.57,1.05-5.94c.05-.28.18-.5.37-.66.2-.16.44-.23.74-.23h2.59v6.85h5.46ZM385.87,284.8c0-1.71.25-3.26.74-4.64.49-1.38,1.19-2.56,2.08-3.52.9-.96,1.98-1.7,3.25-2.23s2.68-.78,4.23-.78,2.96.26,4.22.78c1.26.52,2.34,1.26,3.23,2.23.89.96,1.58,2.13,2.06,3.52.49,1.39.73,2.93.73,4.64s-.24,3.28-.73,4.66c-.49,1.39-1.17,2.56-2.06,3.54-.89.98-1.96,1.72-3.23,2.25-1.26.52-2.67.78-4.22.78s-2.96-.26-4.23-.78c-1.27-.52-2.35-1.27-3.25-2.25s-1.59-2.15-2.08-3.54c-.49-1.38-.74-2.94-.74-4.66ZM433.58,278.75c-.58-.7-1.43-1.05-2.55-1.05-.51,0-.99.09-1.43.28-.44.18-.82.45-1.15.79-.33.35-.59.78-.78,1.3-.19.52-.28,1.12-.28,1.8v13.84h-5.02v-13.84c0-1.46-.28-2.52-.84-3.18-.56-.66-1.38-1-2.48-1-.71,0-1.39.19-2.01.56s-1.21.89-1.75,1.54v15.92h-5v-21.75h3.05c.65,0,1.07.32,1.27.95l.32,1.61c.36-.42.74-.81,1.14-1.17.4-.35.82-.66,1.27-.91.45-.25.94-.46,1.46-.6.52-.15,1.09-.22,1.71-.22,1.31,0,2.38.37,3.23,1.11.84.74,1.47,1.73,1.89,2.96.32-.72.73-1.34,1.21-1.85.49-.52,1.02-.94,1.6-1.26.58-.32,1.2-.56,1.85-.72.65-.16,1.31-.23,1.97-.23,1.15,0,2.16.18,3.05.55.89.37,1.64.9,2.25,1.61.61.71,1.07,1.57,1.39,2.59.32,1.02.48,2.18.48,3.5v13.84h-5v-13.84c0-1.39-.29-2.43-.87-3.13ZM454.87,278.76c-.59-.7-1.44-1.06-2.56-1.06-.81,0-1.48.1-2.02.3-.54.2-1.01.42-1.41.67-.4.25-.77.47-1.1.67-.34.2-.71.3-1.11.3-.34,0-.63-.09-.87-.28-.24-.18-.44-.41-.59-.68l-.91-1.67c2.39-2.29,5.27-3.43,8.64-3.43,1.21,0,2.3.21,3.25.63.95.42,1.76,1,2.42,1.74s1.16,1.63,1.51,2.66c.34,1.03.52,2.16.52,3.39v13.74h-2.25c-.47,0-.84-.07-1.11-.22s-.47-.45-.61-.9l-.45-1.55c-.53.49-1.04.93-1.55,1.3-.51.37-1.03.69-1.57.94-.54.25-1.11.44-1.72.57-.61.13-1.28.19-2.02.19-.88,0-1.69-.12-2.43-.37-.74-.25-1.38-.62-1.91-1.12-.53-.5-.95-1.11-1.24-1.85s-.45-1.6-.45-2.57c0-.82.21-1.63.62-2.44s1.1-1.52,2.05-2.17c.96-.65,2.23-1.18,3.82-1.61s3.57-.64,5.93-.64v-1.28c0-1.47-.29-2.55-.88-3.26ZM477.21,274.16v3.73h-5.46v11.79c0,.68.16,1.21.49,1.59.32.38.75.57,1.29.57.31,0,.57-.04.78-.12.21-.08.39-.16.55-.24.16-.08.29-.17.42-.24s.24-.12.36-.12c.15,0,.27.04.36.12.09.08.2.19.3.35l1.5,2.54c-.73.64-1.56,1.12-2.51,1.44-.94.33-1.92.49-2.93.49-1.79,0-3.18-.53-4.15-1.6s-1.46-2.54-1.46-4.42v-12.15h-2.1c-.27,0-.5-.09-.7-.28-.2-.18-.29-.46-.29-.83v-2.08l3.34-.57,1.05-5.94c.05-.28.18-.5.37-.66.2-.16.44-.23.74-.23h2.59v6.85h5.46ZM486.3,269.94c-.29.3-.63.53-1.02.71-.39.18-.81.27-1.25.27s-.84-.09-1.22-.27c-.38-.18-.72-.41-1-.71-.28-.3-.51-.64-.68-1.04-.17-.4-.25-.82-.25-1.27s.08-.9.25-1.31c.17-.41.39-.76.68-1.06s.62-.53,1-.71c.38-.18.79-.27,1.22-.27s.86.09,1.25.27c.39.18.73.41,1.02.71s.52.65.7,1.06c.17.41.26.85.26,1.31s-.09.88-.26,1.27c-.18.4-.41.74-.7,1.04ZM486.52,273.97v21.75h-5v-21.75h5ZM496.23,287.89c.24.9.58,1.66,1.02,2.28.44.61.98,1.08,1.62,1.4.63.32,1.35.48,2.14.48s1.44-.1,1.93-.31c.49-.2.91-.43,1.24-.68s.63-.47.88-.68c.25-.2.53-.31.84-.31.41,0,.71.16.91.49l1.44,1.91c-.55.68-1.15,1.25-1.8,1.71-.65.46-1.32.83-2.01,1.1s-1.41.47-2.15.58c-.74.11-1.48.17-2.21.17-1.28,0-2.49-.25-3.62-.75s-2.12-1.23-2.96-2.19c-.84-.96-1.51-2.14-2-3.53-.49-1.39-.74-2.98-.74-4.76,0-1.6.22-3.08.66-4.44s1.08-2.54,1.93-3.54c.85-1,1.9-1.78,3.16-2.34,1.25-.56,2.7-.85,4.33-.85s2.91.26,4.08.78,2.21,1.27,3.15,2.25l-1.32,1.91c-.15.2-.29.35-.43.47-.14.11-.35.17-.62.17s-.5-.08-.75-.24c-.24-.16-.53-.35-.87-.55-.34-.2-.74-.39-1.2-.55-.46-.16-1.04-.24-1.73-.24-.88,0-1.64.17-2.31.5-.66.33-1.21.81-1.65,1.43-.44.62-.77,1.37-.98,2.26-.22.88-.32,1.88-.32,3s.12,2.19.35,3.09ZM341.71,295.72c-.47,0-.86-.12-1.16-.37-.3-.25-.52-.55-.66-.92l-2.18-6.25h-12.12l-2.18,6.25c-.11.33-.32.62-.64.89-.32.27-.71.4-1.16.4h-4.23l11.49-30.65h5.56l11.49,30.65h-4.21Z" style="fill:#66cb92;"/><path d="M328.87,265.06l-11.49,30.65h4.23c.46,0,.85-.13,1.16-.4.32-.27.53-.56.64-.89l2.18-6.25h12.12l2.18,6.25c.13.37.35.67.66.92.3.25.69.37,1.16.37h4.21l-11.49-30.65h-5.56ZM326.99,284.14l3.56-10.15c.17-.47.35-1.01.54-1.63.18-.62.37-1.29.56-2.01.19.72.38,1.39.58,2s.38,1.15.54,1.6l3.56,10.2h-9.33Z" style="fill:#fff;"/><path d="M348.23,273.97v13.82c0,1.22.15,2.33.46,3.34s.75,1.88,1.34,2.62c.59.74,1.33,1.3,2.19,1.71.87.4,1.87.6,3,.6.69,0,1.33-.07,1.93-.22s1.16-.35,1.68-.61c.52-.26,1.01-.58,1.47-.95.46-.37.9-.79,1.33-1.24l.34,1.74c.2.64.63.95,1.27.95h3.05v-21.75h-5v15.73c-.67.71-1.39,1.26-2.14,1.66-.75.4-1.56.6-2.43.6-1.17,0-2.05-.36-2.64-1.09-.59-.73-.88-1.76-.88-3.08v-13.82h-5Z" style="fill:#fff;"/><path d="M375.27,267.31c-.3,0-.54.08-.74.23-.2.16-.32.37-.37.66l-1.05,5.94-3.34.57v2.08c0,.37.1.64.29.83.2.18.43.28.7.28h2.1v12.15c0,1.88.49,3.35,1.46,4.42s2.35,1.6,4.15,1.6c1.01,0,1.99-.16,2.93-.49.94-.32,1.78-.81,2.51-1.44l-1.5-2.54c-.11-.16-.21-.27-.3-.35-.09-.08-.22-.12-.36-.12-.12,0-.24.04-.36.12s-.26.16-.42.24c-.16.08-.34.17-.55.24-.21.08-.47.12-.78.12-.54,0-.97-.19-1.29-.57-.32-.38-.49-.91-.49-1.59v-11.79h5.46v-3.73h-5.46v-6.85h-2.59Z" style="fill:#fff;"/><path d="M391.94,295.25c1.27.52,2.68.78,4.23.78s2.96-.26,4.22-.78c1.26-.52,2.34-1.27,3.23-2.25.89-.98,1.58-2.15,2.06-3.54.49-1.38.73-2.94.73-4.66s-.24-3.26-.73-4.64c-.49-1.38-1.17-2.56-2.06-3.52-.89-.96-1.96-1.7-3.23-2.23-1.26-.52-2.67-.78-4.22-.78s-2.96.26-4.23.78-2.35,1.26-3.25,2.23c-.9.96-1.59,2.13-2.08,3.52-.49,1.39-.74,2.93-.74,4.64s.25,3.28.74,4.66c.49,1.39,1.19,2.56,2.08,3.54s1.98,1.72,3.25,2.25ZM392.28,279.49c.84-1.24,2.13-1.85,3.88-1.85s3,.61,3.83,1.84,1.24,3.02,1.24,5.36-.42,4.13-1.24,5.34-2.11,1.82-3.83,1.82-3.05-.61-3.88-1.83c-.84-1.22-1.25-3-1.25-5.33s.42-4.12,1.25-5.35Z" style="fill:#fff;"/><path d="M439.45,295.72v-13.84c0-1.31-.16-2.48-.48-3.5-.32-1.02-.78-1.88-1.39-2.59-.61-.71-1.35-1.24-2.25-1.61-.89-.37-1.91-.55-3.05-.55-.66,0-1.32.08-1.97.23-.65.16-1.27.4-1.85.72-.58.33-1.11.75-1.6,1.26-.49.52-.89,1.13-1.21,1.85-.42-1.23-1.05-2.22-1.89-2.96-.84-.74-1.92-1.11-3.23-1.11-.62,0-1.19.07-1.71.22-.52.15-1,.35-1.46.6-.45.25-.88.56-1.27.91-.4.35-.78.74-1.14,1.17l-.32-1.61c-.2-.64-.63-.95-1.27-.95h-3.05v21.75h5v-15.92c.54-.65,1.12-1.16,1.75-1.54s1.3-.56,2.01-.56c1.09,0,1.92.33,2.48,1,.56.66.84,1.72.84,3.18v13.84h5.02v-13.84c0-.68.09-1.28.28-1.8.19-.52.45-.96.78-1.3.33-.35.71-.61,1.15-.79.44-.18.91-.28,1.43-.28,1.12,0,1.97.35,2.55,1.05.58.7.87,1.74.87,3.13v13.84h5Z" style="fill:#fff;"/><path d="M449.82,283.93c-1.59.43-2.87.96-3.82,1.61-.96.65-1.64,1.37-2.05,2.17s-.62,1.61-.62,2.44c0,.98.15,1.84.45,2.57s.71,1.35,1.24,1.85c.53.5,1.17.87,1.91,1.12.74.25,1.55.37,2.43.37.74,0,1.42-.06,2.02-.19.61-.13,1.18-.32,1.72-.57.54-.25,1.06-.57,1.57-.94.5-.37,1.02-.81,1.55-1.3l.45,1.55c.13.45.34.75.61.9s.64.22,1.11.22h2.25v-13.74c0-1.23-.17-2.36-.52-3.39-.34-1.03-.85-1.92-1.51-2.66s-1.47-1.32-2.42-1.74c-.95-.42-2.03-.63-3.25-.63-3.37,0-6.25,1.15-8.64,3.43l.91,1.67c.15.27.34.5.59.68.24.18.53.28.87.28.4,0,.78-.1,1.11-.3.34-.2.7-.42,1.1-.67.4-.25.87-.47,1.41-.67.54-.2,1.21-.3,2.02-.3,1.12,0,1.97.35,2.56,1.06.59.71.88,1.79.88,3.26v1.28c-2.36,0-4.34.21-5.93.64ZM455.75,290.14c-.36.39-.73.73-1.08,1.01-.36.29-.73.52-1.11.72-.38.19-.79.34-1.22.44-.43.1-.9.15-1.42.15-.84,0-1.51-.2-2.03-.6-.52-.4-.78-1.06-.78-1.99,0-.47.12-.9.37-1.3.25-.4.67-.75,1.26-1.05s1.38-.54,2.36-.74,2.19-.29,3.65-.29v3.64Z" style="fill:#fff;"/><path d="M469.16,267.31c-.3,0-.54.08-.74.23-.2.16-.32.37-.37.66l-1.05,5.94-3.34.57v2.08c0,.37.1.64.29.83.2.18.43.28.7.28h2.1v12.15c0,1.88.49,3.35,1.46,4.42s2.35,1.6,4.15,1.6c1.01,0,1.99-.16,2.93-.49.94-.32,1.78-.81,2.51-1.44l-1.5-2.54c-.11-.16-.21-.27-.3-.35-.09-.08-.22-.12-.36-.12-.12,0-.24.04-.36.12s-.26.16-.42.24c-.16.08-.34.17-.55.24-.21.08-.47.12-.78.12-.54,0-.97-.19-1.29-.57-.32-.38-.49-.91-.49-1.59v-11.79h5.46v-3.73h-5.46v-6.85h-2.59Z" style="fill:#fff;"/><rect x="481.52" y="273.97" width="5" height="21.75" style="fill:#fff;"/><path d="M487.26,267.63c0-.47-.09-.9-.26-1.31-.18-.41-.41-.76-.7-1.06s-.63-.53-1.02-.71c-.39-.18-.81-.27-1.25-.27s-.84.09-1.22.27c-.38.18-.72.41-1,.71s-.51.65-.68,1.06c-.17.41-.25.85-.25,1.31s.08.88.25,1.27c.17.4.39.74.68,1.04.28.3.62.53,1,.71.38.18.79.27,1.22.27s.86-.09,1.25-.27c.39-.18.73-.41,1.02-.71.29-.3.52-.64.7-1.04.17-.4.26-.82.26-1.27Z" style="fill:#fff;"/><path d="M497.18,279.54c.44-.62.99-1.1,1.65-1.43.66-.33,1.43-.5,2.31-.5.69,0,1.26.08,1.73.24.47.16.87.35,1.2.55.34.21.63.39.87.55.24.16.49.24.75.24.27,0,.48-.06.62-.17.14-.11.29-.27.43-.47l1.32-1.91c-.93-.98-1.98-1.72-3.15-2.25s-2.53-.78-4.08-.78c-1.63,0-3.07.28-4.33.85-1.25.57-2.31,1.35-3.16,2.34-.85,1-1.49,2.18-1.93,3.54s-.66,2.84-.66,4.44c0,1.78.25,3.37.74,4.76.49,1.39,1.16,2.57,2,3.53.84.96,1.83,1.69,2.96,2.19s2.34.75,3.62.75c.73,0,1.46-.06,2.21-.17.74-.11,1.46-.31,2.15-.58s1.37-.64,2.01-1.1c.65-.46,1.25-1.03,1.8-1.71l-1.44-1.91c-.2-.32-.5-.49-.91-.49-.31,0-.59.1-.84.31-.25.21-.54.43-.88.68s-.75.47-1.24.68c-.49.21-1.14.31-1.93.31s-1.51-.16-2.14-.48c-.63-.32-1.17-.78-1.62-1.4-.45-.61-.79-1.37-1.02-2.28-.24-.9-.35-1.94-.35-3.09s.11-2.12.32-3c.21-.88.54-1.64.98-2.26Z" style="fill:#fff;"/><rect x="210.92" y="525.06" width="38.39" height="31.99" rx="9.85" ry="9.85" style="fill:#0070ba;"/><rect x="262.3" y="525.06" width="38.39" height="31.99" rx="9.85" ry="9.85" style="fill:#0070ba;"/><rect x="313.68" y="525.06" width="38.39" height="31.99" rx="9.85" ry="9.85" style="fill:#0070ba;"/><rect x="365.06" y="525.06" width="38.39" height="31.99" rx="9.85" ry="9.85" style="fill:#cae3f4;"/><rect x="416.44" y="525.06" width="38.39" height="31.99" rx="9.85" ry="9.85" style="fill:#cae3f4;"/><rect x="107.9" y="564.95" width="38.39" height="31.99" rx="9.85" ry="9.85" style="fill:#0070ba;"/><rect x="159.28" y="564.95" width="38.39" height="31.99" rx="9.85" ry="9.85" style="fill:#0070ba;"/><rect x="210.66" y="564.95" width="38.39" height="31.99" rx="9.85" ry="9.85" style="fill:#0070ba;"/><rect x="262.04" y="564.95" width="38.39" height="31.99" rx="9.85" ry="9.85" style="fill:#0070ba;"/><rect x="313.42" y="564.95" width="38.39" height="31.99" rx="9.85" ry="9.85" style="fill:#0070ba;"/><rect x="364.8" y="564.95" width="38.39" height="31.99" rx="9.85" ry="9.85" style="fill:#cae3f4;"/><rect x="416.17" y="564.95" width="38.39" height="31.99" rx="9.85" ry="9.85" style="fill:#cae3f4;"/><rect x="108.03" y="605.04" width="38.39" height="31.99" rx="9.85" ry="9.85" style="fill:#0070ba;"/><rect x="159.41" y="605.04" width="38.39" height="31.99" rx="9.85" ry="9.85" style="fill:#0070ba;"/><rect x="210.79" y="605.04" width="38.39" height="31.99" rx="9.85" ry="9.85" style="fill:#0070ba;"/><rect x="262.17" y="605.04" width="38.39" height="31.99" rx="9.85" ry="9.85" style="fill:#66cb92;"/><rect x="313.55" y="605.04" width="38.39" height="31.99" rx="9.85" ry="9.85" style="fill:#66cb92;"/><rect x="369.69" y="609.79" width="28.88" height="22.48" rx="5.09" ry="5.09" style="fill:#cae3f4;"/><path d="M393.47,605.04h-18.69c-5.44,0-9.85,4.41-9.85,9.85v12.29c0,5.44,4.41,9.85,9.85,9.85h18.69c5.44,0,9.85-4.41,9.85-9.85v-12.29c0-5.44-4.41-9.85-9.85-9.85ZM398.56,627.18c0,2.81-2.28,5.09-5.09,5.09h-18.69c-2.81,0-5.09-2.28-5.09-5.09v-12.29c0-2.81,2.28-5.09,5.09-5.09h18.69c2.81,0,5.09,2.28,5.09,5.09v12.29Z" style="fill:#66cb92;"/><rect x="421.07" y="609.79" width="28.88" height="22.48" rx="5.09" ry="5.09" style="fill:#cae3f4;"/><path d="M444.85,605.04h-18.69c-5.44,0-9.85,4.41-9.85,9.85v12.29c0,5.44,4.41,9.85,9.85,9.85h18.69c5.44,0,9.85-4.41,9.85-9.85v-12.29c0-5.44-4.41-9.85-9.85-9.85ZM449.94,627.18c0,2.81-2.28,5.09-5.09,5.09h-18.69c-2.81,0-5.09-2.28-5.09-5.09v-12.29c0-2.81,2.28-5.09,5.09-5.09h18.69c2.81,0,5.09,2.28,5.09,5.09v12.29Z" style="fill:#66cb92;"/><rect x="107.77" y="644.93" width="38.39" height="31.99" rx="9.85" ry="9.85" style="fill:#66cb92;"/><rect x="159.15" y="644.93" width="38.39" height="31.99" rx="9.85" ry="9.85" style="fill:#66cb92;"/><rect x="210.52" y="644.93" width="38.39" height="31.99" rx="9.85" ry="9.85" style="fill:#0070ba;"/><rect x="261.9" y="644.93" width="38.39" height="31.99" rx="9.85" ry="9.85" style="fill:#0070ba;"/><rect x="313.28" y="644.93" width="38.39" height="31.99" rx="9.85" ry="9.85" style="fill:#0070ba;"/><rect x="364.66" y="644.93" width="38.39" height="31.99" rx="9.85" ry="9.85" style="fill:#cae3f4;"/><rect x="416.04" y="644.93" width="38.39" height="31.99" rx="9.85" ry="9.85" style="fill:#cae3f4;"/><rect x="107.77" y="685.02" width="38.39" height="31.99" rx="9.85" ry="9.85" style="fill:#0070ba;"/><rect x="159.15" y="685.02" width="38.39" height="31.99" rx="9.85" ry="9.85" style="fill:#0070ba;"/><rect x="210.52" y="685.02" width="38.39" height="31.99" rx="9.85" ry="9.85" style="fill:#0070ba;"/><rect x="261.9" y="685.02" width="38.39" height="31.99" rx="9.85" ry="9.85" style="fill:#0070ba;"/><rect x="313.28" y="685.02" width="38.39" height="31.99" rx="9.85" ry="9.85" style="fill:#0070ba;"/><rect x="364.66" y="685.02" width="38.39" height="31.99" rx="9.85" ry="9.85" style="fill:#cae3f4;"/><path d="M320.7,488.95c0-3.97-3.22-7.2-7.2-7.2h-64.01c-3.97,0-7.2,3.22-7.2,7.2s3.22,7.2,7.2,7.2h64.01c3.97,0,7.2-3.22,7.2-7.2Z" style="fill:#cae3f4;"/><path d="M82.31,478.22c-.85-.75-2.15-.68-2.9.17l-7.89,8.88c-.35.39-.52.88-.52,1.36s.17.98.52,1.36l7.89,8.88c.75.85,2.05.92,2.9.17.85-.75.92-2.05.17-2.9l-6.67-7.51,6.67-7.51c.75-.85.68-2.15-.17-2.9Z" style="fill:#cae3f4;"/><rect x="614.36" y="525.06" width="38.39" height="31.99" rx="9.85" ry="9.85" style="fill:#cae3f4;"/><rect x="665.74" y="525.06" width="38.39" height="31.99" rx="9.85" ry="9.85" style="fill:#cae3f4;"/><rect x="717.12" y="525.06" width="38.39" height="31.99" rx="9.85" ry="9.85" style="fill:#cae3f4;"/><rect x="768.5" y="525.06" width="38.39" height="31.99" rx="9.85" ry="9.85" style="fill:#cae3f4;"/><rect x="819.88" y="525.06" width="38.39" height="31.99" rx="9.85" ry="9.85" style="fill:#cae3f4;"/><rect x="511.34" y="564.95" width="38.39" height="31.99" rx="9.85" ry="9.85" style="fill:#cae3f4;"/><rect x="562.72" y="564.95" width="38.39" height="31.99" rx="9.85" ry="9.85" style="fill:#cae3f4;"/><rect x="614.1" y="564.95" width="38.39" height="31.99" rx="9.85" ry="9.85" style="fill:#cae3f4;"/><rect x="665.48" y="564.95" width="38.39" height="31.99" rx="9.85" ry="9.85" style="fill:#cae3f4;"/><rect x="716.86" y="564.95" width="38.39" height="31.99" rx="9.85" ry="9.85" style="fill:#cae3f4;"/><rect x="768.24" y="564.95" width="38.39" height="31.99" rx="9.85" ry="9.85" style="fill:#cae3f4;"/><rect x="819.61" y="564.95" width="38.39" height="31.99" rx="9.85" ry="9.85" style="fill:#cae3f4;"/><rect x="511.47" y="605.04" width="38.39" height="31.99" rx="9.85" ry="9.85" style="fill:#cae3f4;"/><rect x="562.85" y="605.04" width="38.39" height="31.99" rx="9.85" ry="9.85" style="fill:#cae3f4;"/><rect x="614.23" y="605.04" width="38.39" height="31.99" rx="9.85" ry="9.85" style="fill:#cae3f4;"/><rect x="665.61" y="605.04" width="38.39" height="31.99" rx="9.85" ry="9.85" style="fill:#cae3f4;"/><rect x="716.99" y="605.04" width="38.39" height="31.99" rx="9.85" ry="9.85" style="fill:#cae3f4;"/><rect x="768.37" y="605.04" width="38.39" height="31.99" rx="9.85" ry="9.85" style="fill:#cae3f4;"/><rect x="819.75" y="605.04" width="38.39" height="31.99" rx="9.85" ry="9.85" style="fill:#cae3f4;"/><rect x="511.21" y="644.93" width="38.39" height="31.99" rx="9.85" ry="9.85" style="fill:#cae3f4;"/><rect x="562.59" y="644.93" width="38.39" height="31.99" rx="9.85" ry="9.85" style="fill:#cae3f4;"/><rect x="613.96" y="644.93" width="38.39" height="31.99" rx="9.85" ry="9.85" style="fill:#cae3f4;"/><rect x="665.34" y="644.93" width="38.39" height="31.99" rx="9.85" ry="9.85" style="fill:#cae3f4;"/><rect x="716.72" y="644.93" width="38.39" height="31.99" rx="9.85" ry="9.85" style="fill:#cae3f4;"/><rect x="768.1" y="644.93" width="38.39" height="31.99" rx="9.85" ry="9.85" style="fill:#cae3f4;"/><rect x="819.48" y="644.93" width="38.39" height="31.99" rx="9.85" ry="9.85" style="fill:#cae3f4;"/><rect x="511.21" y="685.02" width="38.39" height="31.99" rx="9.85" ry="9.85" style="fill:#cae3f4;"/><rect x="562.59" y="685.02" width="38.39" height="31.99" rx="9.85" ry="9.85" style="fill:#cae3f4;"/><rect x="613.96" y="685.02" width="38.39" height="31.99" rx="9.85" ry="9.85" style="fill:#cae3f4;"/><rect x="665.34" y="685.02" width="38.39" height="31.99" rx="9.85" ry="9.85" style="fill:#cae3f4;"/><rect x="716.72" y="685.02" width="38.39" height="31.99" rx="9.85" ry="9.85" style="fill:#cae3f4;"/><rect x="768.1" y="685.02" width="38.39" height="31.99" rx="9.85" ry="9.85" style="fill:#cae3f4;"/><path d="M724.14,488.95c0-3.97-3.22-7.2-7.2-7.2h-64.01c-3.97,0-7.2,3.22-7.2,7.2s3.22,7.2,7.2,7.2h64.01c3.97,0,7.2-3.22,7.2-7.2Z" style="fill:#cae3f4;"/><path d="M890.48,479.23c-.75-.85-2.05-.92-2.9-.17-.85.75-.92,2.05-.17,2.9l6.67,7.51-6.67,7.51c-.75.85-.68,2.15.17,2.9.85.75,2.15.68,2.9-.17l7.89-8.88c.35-.39.52-.88.52-1.36s-.17-.98-.52-1.36l-7.89-8.88Z" style="fill:#cae3f4;"/><path d="M869.6,269.97h-108.29c-5.52,0-10,4.48-10,10s4.48,10,10,10h108.29c5.52,0,10-4.48,10-10s-4.48-10-10-10Z" style="fill:#cae3f4;"/><path d="M718.59,305.77c8.28,0,15-6.72,15-15v-21.61c0-8.28-6.72-15-15-15h-21.61c-8.28,0-15,6.72-15,15v21.61c0,8.28,6.72,15,15,15h21.61ZM693.05,282.24c.98-.98,2.56-.98,3.54,0l6.04,6.04,17.27-17.27c.98-.98,2.56-.98,3.54,0,.98.98.98,2.56,0,3.54l-19.04,19.04c-.47.47-1.1.73-1.77.73s-1.3-.26-1.77-.73l-7.81-7.81c-.98-.98-.98-2.56,0-3.54Z" style="fill:#cae3f4;"/><path d="M702.63,294.31c.66,0,1.3-.26,1.77-.73l19.04-19.04c.98-.98.98-2.56,0-3.54-.98-.98-2.56-.98-3.54,0l-17.27,17.27-6.04-6.04c-.98-.98-2.56-.98-3.54,0-.98.98-.98,2.56,0,3.54l7.81,7.81c.47.47,1.1.73,1.77.73Z" style="fill:#0070ba;"/><path d="M383.16,417.12v-25c0-5.52-4.48-10-10-10H100.41c-5.52,0-10,4.48-10,10v25c0,5.52,4.48,10,10,10h272.76c5.52,0,10-4.48,10-10ZM95.41,417.12v-25c0-2.76,2.24-5,5-5h272.76c2.76,0,5,2.24,5,5v25c0,2.76-2.24,5-5,5H100.41c-2.76,0-5-2.24-5-5Z" style="fill:#cae3f4;"/><path d="M424.57,427.12h272.76c5.52,0,10-4.48,10-10v-25c0-5.52-4.48-10-10-10h-272.76c-5.52,0-10,4.48-10,10v25c0,5.52,4.48,10,10,10ZM419.57,392.12c0-2.76,2.24-5,5-5h272.76c2.76,0,5,2.24,5,5v25c0,2.76-2.24,5-5,5h-272.76c-2.76,0-5-2.24-5-5v-25Z" style="fill:#cae3f4;"/><path d="M868.47,382.12h-118.56c-5.52,0-10,4.48-10,10v25c0,5.52,4.48,10,10,10h118.56c5.52,0,10-4.48,10-10v-25c0-5.52-4.48-10-10-10ZM873.47,417.12c0,2.76-2.24,5-5,5h-118.56c-2.76,0-5-2.24-5-5v-25c0-2.76,2.24-5,5-5h118.56c2.76,0,5,2.24,5,5v25Z" style="fill:#cae3f4;"/></svg>