<?xml version="1.0" encoding="UTF-8"?>
<svg id="Grafik" xmlns="http://www.w3.org/2000/svg" viewBox="0 0 1000 1000">
  <defs>
    <style>
      .cls-1, .cls-2, .cls-3 {
        fill: #fff;
      }

      .cls-4 {
        fill: #66cb92;
      }

      .cls-5, .cls-6, .cls-7, .cls-8 {
        fill: #0070ba;
      }

      .cls-5, .cls-9, .cls-10, .cls-7, .cls-11, .cls-2, .cls-12, .cls-13, .cls-14, .cls-15, .cls-3, .cls-16, .cls-8 {
        stroke-miterlimit: 10;
      }

      .cls-5, .cls-9, .cls-16 {
        stroke: #0070ba;
      }

      .cls-5, .cls-7, .cls-11, .cls-2, .cls-12, .cls-17, .cls-13, .cls-14, .cls-15, .cls-16, .cls-8 {
        stroke-width: 10px;
      }

      .cls-5, .cls-7, .cls-11, .cls-12, .cls-13, .cls-14, .cls-15, .cls-16, .cls-8 {
        stroke-linecap: round;
      }

      .cls-9, .cls-11, .cls-12, .cls-17, .cls-13, .cls-14, .cls-15, .cls-16 {
        fill: none;
      }

      .cls-9, .cls-3 {
        stroke-width: 7px;
      }

      .cls-10, .cls-18 {
        fill: #cae3f4;
      }

      .cls-10, .cls-3 {
        stroke: #fff;
      }

      .cls-19 {
        fill: #9fcde0;
      }

      .cls-7, .cls-2, .cls-14 {
        stroke: #9fcde0;
      }

      .cls-11, .cls-8 {
        stroke: #cae3f4;
      }

      .cls-12 {
        stroke-dasharray: 41.66 41.66;
      }

      .cls-12, .cls-17, .cls-13, .cls-15 {
        stroke: #66cb92;
      }

      .cls-17 {
        stroke-linejoin: round;
      }

      .cls-13 {
        stroke-dasharray: 35.5 35.5;
      }
    </style>
  </defs>
  <line class="cls-8" x1="34.09" y1="591.28" x2="293.21" y2="591.28"/>
  <path class="cls-9" d="M946.39,142.51H55.94c-13.89,0-25.15,11.26-25.15,25.15v43.79h940.76v-43.79c0-13.89-11.26-25.15-25.15-25.15Z"/>
  <path class="cls-16" d="M30.79,857.49V169.06c0-14.66,11.19-26.55,25-26.55h890.76c13.81,0,25,11.89,25,26.55v688.43"/>
  <line class="cls-9" x1="35.07" y1="211.23" x2="967.78" y2="211.23"/>
  <g>
    <path class="cls-6" d="M491.81-293.51h43.72v940.76h-43.72c-13.8,0-25-11.2-25-25V-268.51c0-13.8,11.2-25,25-25Z" transform="translate(678.04 -324.3) rotate(90)"/>
    <circle class="cls-3" cx="76.62" cy="178.18" r="8.6"/>
    <circle class="cls-3" cx="114.43" cy="178.18" r="8.6"/>
    <circle class="cls-3" cx="152.24" cy="178.18" r="8.6"/>
  </g>
  <g>
    <path class="cls-11" d="M293.98,543.55H102.67c-6.99,0-12.65-5.67-12.65-12.65v-198.97c0-6.99,5.67-12.65,12.65-12.65h557.26c6.99,0,12.65,5.67,12.65,12.65v81.94"/>
    <path class="cls-18" d="M374.87,59.42h37.86v582.57h-37.86c-13.8,0-25-11.2-25-25V84.42c0-13.8,11.2-25,25-25Z" transform="translate(732 -30.59) rotate(90)"/>
    <g>
      <circle class="cls-1" cx="612.99" cy="350.71" r="6.02"/>
      <circle class="cls-1" cx="632.75" cy="350.71" r="6.02"/>
      <circle class="cls-1" cx="652.52" cy="350.71" r="6.02"/>
    </g>
    <g>
      <circle class="cls-19" cx="603.69" cy="413.88" r="6.02"/>
      <circle class="cls-19" cx="623.46" cy="413.88" r="6.02"/>
      <circle class="cls-19" cx="643.23" cy="413.88" r="6.02"/>
    </g>
    <line class="cls-5" x1="123.03" y1="350.71" x2="249.63" y2="350.71"/>
    <line class="cls-5" x1="123.03" y1="413.88" x2="249.63" y2="413.88"/>
    <line class="cls-5" x1="123.03" y1="445.62" x2="419.79" y2="445.62"/>
    <line class="cls-5" x1="123.03" y1="477.36" x2="296.31" y2="477.36"/>
    <line class="cls-5" x1="431.02" y1="477.36" x2="528.56" y2="477.36"/>
    <line class="cls-5" x1="431.02" y1="509.1" x2="479.79" y2="509.1"/>
    <line class="cls-5" x1="123.03" y1="509.1" x2="293.21" y2="509.1"/>
    <line class="cls-5" x1="537.1" y1="413.88" x2="571.69" y2="413.88"/>
    <line class="cls-14" x1="303.29" y1="350.71" x2="318" y2="350.71"/>
    <line class="cls-11" x1="431.02" y1="543.55" x2="561.47" y2="543.55"/>
  </g>
  <g>
    <g>
      <path class="cls-15" d="M110.51,857.49h-6.69c-7.63,0-13.81-6.18-13.81-13.81v-6.69"/>
      <line class="cls-13" x1="90.01" y1="801.49" x2="90.01" y2="677.25"/>
      <path class="cls-15" d="M90.01,659.5v-6.69c0-7.63,6.18-13.81,13.81-13.81h6.69"/>
      <line class="cls-12" x1="152.17" y1="639" x2="310.42" y2="639"/>
      <line class="cls-12" x1="435.01" y1="639" x2="583.01" y2="639"/>
      <path class="cls-15" d="M652.08,639h6.69c7.63,0,13.81,6.18,13.81,13.81v6.69"/>
      <line class="cls-13" x1="672.58" y1="774.26" x2="672.58" y2="819.24"/>
      <path class="cls-15" d="M672.58,836.99v6.69c0,7.63-6.18,13.81-13.81,13.81h-6.69"/>
      <line class="cls-12" x1="610.42" y1="857.49" x2="131.34" y2="857.49"/>
    </g>
    <g>
      <circle class="cls-1" cx="612.99" cy="670.43" r="6.02"/>
      <circle class="cls-1" cx="632.75" cy="670.43" r="6.02"/>
      <circle class="cls-1" cx="652.52" cy="670.43" r="6.02"/>
    </g>
  </g>
  <g>
    <rect class="cls-10" x="616.35" y="464.36" width="261.32" height="297.32" rx="40" ry="40"/>
    <rect class="cls-2" x="579.57" y="463.72" width="291.32" height="255.11" rx="25" ry="25" transform="translate(1316.51 -133.96) rotate(90)"/>
    <rect class="cls-4" x="621.91" y="573.06" width="208.06" height="29.24" rx="8.13" ry="8.13"/>
    <line class="cls-5" x1="648.11" y1="480.26" x2="735.47" y2="480.26"/>
    <line class="cls-5" x1="648.11" y1="551.61" x2="791.6" y2="551.61"/>
    <line class="cls-7" x1="597.68" y1="515.93" x2="852.79" y2="515.93"/>
    <line class="cls-7" x1="597.68" y1="622.97" x2="852.79" y2="622.97"/>
    <line class="cls-5" x1="648.11" y1="658.65" x2="791.6" y2="658.65"/>
    <line class="cls-5" x1="648.11" y1="694.32" x2="791.6" y2="694.32"/>
  </g>
  <path class="cls-17" d="M419.83,698.97h-21.78v-206.72c0-8.12-6.58-14.7-14.7-14.7h-40.28c-8.12,0-14.7,6.58-14.7,14.7v206.72h-21.78c-5.7,0-8.56,6.89-4.53,10.93l56.62,56.62c2.5,2.5,6.55,2.5,9.05,0l56.62-56.62c4.03-4.03,1.18-10.93-4.53-10.93Z"/>
  <g>
    <path class="cls-6" d="M112.33,271.87c.37.82.72,1.66,1.06,2.52.34-.88.7-1.74,1.08-2.57.38-.83.77-1.64,1.17-2.42l11.22-22.1c.2-.38.4-.68.62-.89.21-.21.45-.37.71-.46.26-.1.55-.15.88-.15h8.89v43.68h-8.94v-25.14c0-1.22.06-2.54.18-3.96l-11.58,22.47c-.36.7-.85,1.23-1.46,1.59s-1.3.54-2.08.54h-1.38c-.78,0-1.47-.18-2.09-.54-.61-.36-1.09-.89-1.45-1.59l-11.64-22.5c.08.7.14,1.39.18,2.08.04.69.06,1.33.06,1.91v25.14h-8.94v-43.68h8.9c.33,0,.62.05.88.15.26.1.49.25.71.46.21.21.41.51.62.89l11.25,22.19c.4.76.78,1.55,1.15,2.37Z"/>
    <path class="cls-6" d="M175.83,245.77v7.8h-17.94v10.2h13.74v7.5h-13.74v10.41h17.94v7.8h-28.14v-43.71h28.14Z"/>
    <path class="cls-6" d="M212.1,245.77v7.8h-17.94v10.2h13.74v7.5h-13.74v10.41h17.94v7.8h-28.14v-43.71h28.14Z"/>
    <path class="cls-6" d="M251.8,245.77v8.04h-12.3v35.67h-10.14v-35.67h-12.3v-8.04h34.74Z"/>
    <path class="cls-6" d="M268.03,289.48h-10.2v-43.71h10.2v43.71Z"/>
    <path class="cls-6" d="M284.57,245.83c.3.04.57.12.81.23s.47.26.69.46c.22.2.47.47.75.81l20.76,26.25c-.08-.84-.14-1.65-.18-2.44-.04-.79-.06-1.54-.06-2.24v-23.13h8.94v43.71h-5.28c-.78,0-1.44-.12-1.98-.36-.54-.24-1.06-.68-1.56-1.32l-20.61-26.04c.06.76.11,1.5.15,2.23.04.73.06,1.42.06,2.06v23.43h-8.94v-43.71h5.34c.44,0,.81.02,1.11.06Z"/>
    <path class="cls-6" d="M346.66,282.16c1.4,0,2.64-.12,3.72-.36,1.08-.24,2.1-.56,3.06-.96v-6.63h-4.32c-.64,0-1.14-.17-1.5-.51-.36-.34-.54-.77-.54-1.29v-5.58h15.54v18.45c-1.12.82-2.29,1.53-3.5,2.12-1.21.59-2.5,1.08-3.87,1.46s-2.83.66-4.38.84c-1.55.18-3.21.27-4.99.27-3.2,0-6.16-.57-8.88-1.7-2.72-1.13-5.07-2.69-7.06-4.68s-3.55-4.35-4.68-7.08c-1.13-2.73-1.7-5.7-1.7-8.9s.54-6.25,1.62-8.99c1.08-2.73,2.62-5.08,4.63-7.06,2.01-1.98,4.44-3.52,7.29-4.62,2.85-1.1,6.04-1.65,9.55-1.65,1.82,0,3.53.15,5.13.45s3.07.71,4.43,1.23c1.35.52,2.58,1.14,3.71,1.86,1.12.72,2.12,1.5,3,2.34l-2.94,4.47c-.28.42-.62.75-1,.99-.39.24-.82.36-1.28.36-.6,0-1.22-.2-1.86-.6-.8-.48-1.56-.89-2.27-1.25-.71-.35-1.44-.63-2.18-.86-.74-.22-1.52-.38-2.34-.48-.82-.1-1.74-.15-2.76-.15-1.9,0-3.61.34-5.13,1-1.52.67-2.82,1.62-3.89,2.83-1.07,1.22-1.89,2.69-2.47,4.4s-.87,3.62-.87,5.71c0,2.32.32,4.38.96,6.18.64,1.8,1.53,3.32,2.66,4.56,1.13,1.24,2.47,2.19,4.02,2.83,1.55.65,3.24.97,5.08.97Z"/>
    <path class="cls-6" d="M395.54,254.65c-.3.48-.62.84-.95,1.08s-.76.36-1.28.36c-.46,0-.96-.15-1.48-.44-.53-.29-1.13-.62-1.8-.97-.67-.36-1.44-.68-2.29-.98-.86-.29-1.84-.43-2.94-.43-1.9,0-3.31.41-4.25,1.21-.93.81-1.39,1.91-1.39,3.29,0,.88.28,1.61.84,2.19s1.29,1.08,2.21,1.5c.91.42,1.95.8,3.12,1.15,1.17.35,2.36.74,3.58,1.17,1.22.43,2.42.94,3.59,1.52s2.21,1.32,3.12,2.22,1.64,2,2.21,3.29.84,2.84.84,4.67c0,2.02-.35,3.91-1.05,5.67-.7,1.76-1.72,3.29-3.04,4.6-1.33,1.31-2.97,2.34-4.92,3.09-1.95.75-4.17,1.12-6.65,1.12-1.36,0-2.74-.14-4.15-.42-1.41-.28-2.78-.67-4.1-1.18s-2.56-1.11-3.72-1.82c-1.16-.7-2.17-1.48-3.03-2.34l3-4.74c.22-.36.53-.65.93-.87s.83-.33,1.29-.33c.6,0,1.21.19,1.81.57.61.38,1.3.8,2.07,1.26s1.65.88,2.65,1.26,2.18.57,3.54.57c1.84,0,3.27-.41,4.29-1.22,1.02-.81,1.53-2.09,1.53-3.85,0-1.02-.28-1.85-.84-2.49-.56-.64-1.29-1.17-2.21-1.59s-1.95-.79-3.11-1.11c-1.16-.32-2.35-.67-3.57-1.06-1.22-.39-2.41-.87-3.57-1.44-1.16-.57-2.2-1.32-3.11-2.25-.91-.93-1.64-2.09-2.2-3.48-.56-1.39-.84-3.11-.84-5.15,0-1.64.33-3.24.99-4.8s1.63-2.95,2.91-4.17,2.85-2.19,4.71-2.92c1.86-.73,3.99-1.1,6.39-1.1,1.34,0,2.65.11,3.92.32s2.47.52,3.62.93c1.14.41,2.21.9,3.2,1.47.99.57,1.88,1.21,2.65,1.93l-2.52,4.71Z"/>
  </g>
</svg>