<?xml version="1.0" encoding="UTF-8"?><svg id="b" xmlns="http://www.w3.org/2000/svg" viewBox="0 0 1000 1000"><path d="M562.93,444.22c-.43-1.42-1.1-2.66-2-3.72-.9-1.07-2.03-1.91-3.4-2.53-1.37-.62-2.97-.92-4.8-.92-3.6,0-6.42,1.02-8.45,3.05-2.03,2.03-3.33,4.92-3.9,8.65h23.2c0-1.6-.22-3.11-.65-4.53Z" style="fill:none;"/><path d="M469.43,471.55c4.27,0,7.42-1.43,9.47-4.3,2.05-2.87,3.08-7.07,3.08-12.6s-1.03-9.75-3.08-12.65c-2.05-2.9-5.21-4.35-9.47-4.35s-7.53,1.46-9.6,4.38c-2.07,2.92-3.1,7.12-3.1,12.62s1.03,9.69,3.1,12.58c2.07,2.88,5.27,4.33,9.6,4.33Z" style="fill:none;"/><path d="M379.88,421.8c-1.2-1.1-2.72-1.94-4.55-2.52-1.83-.58-3.98-.88-6.45-.88h-10.1v25.95h10.1c2.47,0,4.62-.31,6.45-.92,1.83-.62,3.35-1.5,4.55-2.65,1.2-1.15,2.1-2.55,2.7-4.2.6-1.65.9-3.49.9-5.53s-.3-3.68-.9-5.25c-.6-1.57-1.5-2.9-2.7-4Z" style="fill:none;"/><path d="M678.68,550.5c-.9-1.07-2.03-1.91-3.4-2.53-1.37-.62-2.97-.92-4.8-.92-3.6,0-6.42,1.02-8.45,3.05-2.03,2.03-3.33,4.92-3.9,8.65h23.2c0-1.6-.22-3.11-.65-4.53-.43-1.42-1.1-2.66-2-3.72Z" style="fill:none;"/><path d="M431.74,550.5c-.9-1.07-2.03-1.91-3.4-2.53-1.37-.62-2.97-.92-4.8-.92-3.6,0-6.42,1.02-8.45,3.05s-3.33,4.92-3.9,8.65h23.2c0-1.6-.22-3.11-.65-4.53-.43-1.42-1.1-2.66-2-3.72Z" style="fill:none;"/><path d="M475.9,843.03c-8.68-8.11-13.61-19.59-13.53-31.47.05-8.59,2.73-16.93,7.55-23.91-21.63-2.5-42.73-7.4-62.97-14.57-40-14.17-76.66-37.21-107.55-68.1-27.53-27.53-48.82-59.65-63.15-94.62-4.04-9.87-7.55-19.96-10.46-30.24l12.71-.07c10.79-.05,16.36-12.94,9.01-20.84l-26.15-28.1-5.57-5.98h0s-30.68-32.97-30.68-32.97c-4.94-5.3-13.34-5.26-18.23.08l-26.61,29.14-9.27,10.16-25.88,28.33c-7.28,7.98-1.59,20.8,9.21,20.76l34.14-.16c2.29,10.25,5.02,20.35,8.17,30.26,16.72,52.78,45.15,100.34,82.23,139.66l28.21-.2c14.99-.11,27.23,11.96,27.33,26.94l.15,21.5c57.99,40.78,128.41,65.07,204.47,66.03l-23.13-21.63Z" style="fill:#66cb92;"/><path d="M215.82,316.65h-26.23c-27.82,47.38-45.23,101.61-49.07,159.55l4-4.39c8.07-8.83,19.56-13.9,31.52-13.9s23.2,4.97,31.25,13.61l8.21,8.81c4.8-69.51,34.17-134.22,83.91-183.96,25.96-25.95,56-46.38,88.67-60.65,9.85-4.31,19.94-8.05,30.23-11.21l.03,3.93.12,17.71c.02,2.84.94,5.31,2.41,7.28,3.59,4.83,10.54,6.65,16.12,3.41.81-.47,1.6-1.05,2.34-1.74l28.03-26.2,17.73-16.58,12.16-11.37,8.98-8.39c3.31-3.09,4.52-7.53,3.66-11.62-.26-1.22-.7-2.42-1.33-3.53,0,0,0,0,0,0-.4-.7-.88-1.37-1.42-2-.03-.04-.06-.08-.09-.11-.29-.33-.61-.65-.94-.95l-39.37-35.8-.03-.03-18.93-17.2-9.44-8.59c-7.99-7.27-20.8-1.54-20.73,9.25l.15,21.57.02,3.32c-10.26,2.49-20.35,5.4-30.24,8.73-55.33,18.63-104.71,50.19-144.56,91.09v42.82c0,14.99-12.15,27.14-27.14,27.14Z" style="fill:#cae3f4;"/><path d="M784.18,691.3h29.68c32.76-53.19,52.23-115.44,53.75-182.12l-10.92,11.74c-8.05,8.64-19.43,13.61-31.25,13.61s-23.45-5.07-31.52-13.91l-1.84-2.02c-4.28,70.43-33.75,136.05-84.07,186.38-27.02,27-58.41,48-92.62,62.32-9.91,4.15-20.04,7.75-30.38,10.76l.2-27.74c.08-10.8-12.74-16.52-20.73-9.26l-28.39,25.82-24.88,22.63-14.49,13.17c-5.36,4.87-5.41,13.28-.13,18.22l38.87,36.36,5.89,5.51,22.14,20.69c7.89,7.38,20.79,1.83,20.87-8.96l.13-18.81c10.3-2.33,20.42-5.1,30.35-8.29,53.97-17.28,102.46-46.82,142.2-85.34v-43.62c0-14.99,12.15-27.14,27.14-27.14Z" style="fill:#cae3f4;"/><path d="M526.47,151.92c8.79,8.01,13.88,19.4,13.96,31.3.08,10.99-4.14,21.63-11.63,29.59,67.71,5.78,130.59,34.95,179.21,83.57,25.03,25.03,44.89,53.84,59.07,85.15,4.48,9.88,8.39,20.01,11.71,30.35l-15.06-.07c-10.8-.05-16.49,12.78-9.21,20.75l25.88,28.33,10.91,11.95,24.98,27.35c4.89,5.35,13.29,5.39,18.23.09l31.59-33.96,4.66-5.01,26.15-28.08c7.35-7.9,1.78-20.79-9.01-20.84l-31.01-.15c-2.57-10.29-5.58-20.42-9.01-30.34-17.13-49.67-44.73-94.47-80.14-131.77h-19.69c-14.99,0-27.14-12.15-27.14-27.14v-14.43c-59.14-44.05-132.1-70.57-211.2-71.85l16.74,15.21Z" style="fill:#0070ba;"/><path d="M396.94,431.05c0-3.37-.55-6.47-1.65-9.3-1.1-2.83-2.8-5.27-5.1-7.3-2.3-2.03-5.22-3.62-8.75-4.75-3.53-1.13-7.72-1.7-12.55-1.7h-23.55v72.3h13.45v-25.45h10.1c4.7,0,8.8-.58,12.3-1.75,3.5-1.17,6.42-2.8,8.75-4.9,2.33-2.1,4.08-4.61,5.25-7.53,1.17-2.92,1.75-6.12,1.75-9.62ZM382.58,436.57c-.6,1.65-1.5,3.05-2.7,4.2-1.2,1.15-2.72,2.03-4.55,2.65-1.83.62-3.98.92-6.45.92h-10.1v-25.95h10.1c2.47,0,4.62.29,6.45.88,1.83.58,3.35,1.42,4.55,2.52,1.2,1.1,2.1,2.43,2.7,4,.6,1.57.9,3.32.9,5.25,0,2.03-.3,3.88-.9,5.53Z" style="fill:#0070ba;"/><path d="M419.04,448.35c1.27-2.73,2.82-4.81,4.65-6.22,1.83-1.42,4.03-2.12,6.6-2.12,1.43,0,2.58.12,3.45.35.87.23,1.55.35,2.05.35.57,0,1.02-.12,1.35-.38s.55-.68.65-1.28l1.6-9.25c-1.67-1.17-3.77-1.75-6.3-1.75-3.07,0-5.83.92-8.3,2.75-2.47,1.83-4.62,4.33-6.45,7.5l-.75-6.2c-.17-1.13-.5-1.93-1-2.4s-1.38-.7-2.65-.7h-7.25v51.3h12.35v-31.95Z" style="fill:#0070ba;"/><path d="M450.96,473.9c2.22,2.3,4.89,4.07,8.03,5.3,3.13,1.23,6.62,1.85,10.45,1.85s7.31-.62,10.42-1.85c3.12-1.23,5.78-3,7.97-5.3,2.2-2.3,3.9-5.08,5.1-8.35,1.2-3.27,1.8-6.93,1.8-11s-.6-7.68-1.8-10.95c-1.2-3.27-2.9-6.03-5.1-8.3-2.2-2.27-4.86-4.02-7.97-5.25-3.12-1.23-6.59-1.85-10.42-1.85s-7.32.62-10.45,1.85c-3.13,1.23-5.81,2.98-8.03,5.25-2.22,2.27-3.93,5.03-5.15,8.3-1.22,3.27-1.83,6.92-1.83,10.95s.61,7.73,1.83,11c1.22,3.27,2.93,6.05,5.15,8.35ZM459.83,442.02c2.07-2.92,5.27-4.38,9.6-4.38s7.42,1.45,9.47,4.35c2.05,2.9,3.08,7.12,3.08,12.65s-1.03,9.73-3.08,12.6c-2.05,2.87-5.21,4.3-9.47,4.3s-7.53-1.44-9.6-4.33c-2.07-2.88-3.1-7.08-3.1-12.58s1.03-9.71,3.1-12.62Z" style="fill:#0070ba;"/><path d="M505.88,419.5c.7.7,1.53,1.26,2.48,1.67.95.42,1.96.62,3.02.62s2.13-.21,3.1-.62c.97-.42,1.81-.98,2.52-1.67.72-.7,1.29-1.52,1.73-2.45.43-.93.65-1.93.65-3s-.22-2.13-.65-3.1c-.43-.97-1.01-1.8-1.73-2.5-.72-.7-1.56-1.26-2.52-1.67-.97-.42-2-.62-3.1-.62s-2.07.21-3.02.62c-.95.42-1.78.98-2.48,1.67-.7.7-1.26,1.53-1.67,2.5-.42.97-.62,2-.62,3.1s.21,2.07.62,3c.42.93.98,1.75,1.67,2.45Z" style="fill:#0070ba;"/><path d="M517.53,482.05v-53.05h-12.35v53.05c0,1.33-.11,2.45-.33,3.35-.22.9-.58,1.62-1.1,2.18-.52.55-1.2.95-2.05,1.2-.85.25-1.89.38-3.12.38s-2.07.09-2.5.28c-.43.18-.7.61-.8,1.28l-.4,6.65c1.03.33,2.05.58,3.05.73,1,.15,2.08.22,3.25.22,3,0,5.54-.42,7.62-1.28,2.08-.85,3.77-2.02,5.05-3.5,1.28-1.48,2.22-3.21,2.8-5.17.58-1.97.88-4.07.88-6.3Z" style="fill:#0070ba;"/><path d="M574.23,472.65l-3.6-4.5c-.27-.37-.58-.65-.95-.85-.37-.2-.8-.3-1.3-.3-.77,0-1.56.23-2.38.7-.82.47-1.77.98-2.85,1.55-1.08.57-2.35,1.08-3.8,1.55s-3.17.7-5.17.7c-4.07,0-7.33-1.23-9.8-3.7-2.47-2.47-3.88-6.33-4.25-11.6h31.7c.57,0,1.03-.08,1.4-.23.37-.15.66-.4.88-.75.22-.35.37-.83.45-1.45.08-.62.12-1.39.12-2.32,0-3.7-.55-6.99-1.65-9.88-1.1-2.88-2.63-5.32-4.6-7.3-1.97-1.98-4.31-3.49-7.03-4.52s-5.69-1.55-8.92-1.55c-3.83,0-7.27.67-10.33,2-3.05,1.33-5.63,3.14-7.75,5.42s-3.74,4.97-4.88,8.05c-1.13,3.08-1.7,6.38-1.7,9.88,0,4.5.65,8.46,1.95,11.88,1.3,3.42,3.08,6.28,5.35,8.6,2.27,2.32,4.93,4.07,8,5.25,3.07,1.18,6.38,1.78,9.95,1.78,1.8,0,3.66-.13,5.57-.4s3.8-.72,5.65-1.38c1.85-.65,3.62-1.52,5.33-2.6,1.7-1.08,3.23-2.42,4.6-4.03ZM544.28,440.1c2.03-2.03,4.85-3.05,8.45-3.05,1.83,0,3.43.31,4.8.92,1.37.62,2.5,1.46,3.4,2.53.9,1.07,1.57,2.31,2,3.72.43,1.42.65,2.92.65,4.53h-23.2c.57-3.73,1.87-6.62,3.9-8.65Z" style="fill:#0070ba;"/><path d="M620.08,476.67c1.6-1.08,3.08-2.42,4.45-4.03l-3.55-4.5c-.5-.77-1.25-1.15-2.25-1.15-.77,0-1.46.24-2.07.72-.62.48-1.34,1.02-2.18,1.6s-1.86,1.12-3.07,1.6c-1.22.48-2.81.72-4.78.72s-3.73-.38-5.3-1.12c-1.57-.75-2.9-1.85-4-3.3-1.1-1.45-1.94-3.24-2.53-5.38-.58-2.13-.88-4.57-.88-7.3s.27-4.99.8-7.08c.53-2.08,1.34-3.86,2.43-5.33,1.08-1.47,2.44-2.59,4.07-3.38,1.63-.78,3.53-1.17,5.7-1.17,1.7,0,3.12.19,4.28.58,1.15.38,2.14.82,2.97,1.3.83.48,1.55.92,2.15,1.3.6.38,1.22.58,1.85.58.67,0,1.17-.13,1.53-.4.35-.27.71-.63,1.08-1.1l3.25-4.5c-2.3-2.3-4.89-4.07-7.78-5.3-2.88-1.23-6.24-1.85-10.08-1.85-4.03,0-7.6.67-10.7,2-3.1,1.33-5.7,3.17-7.8,5.52-2.1,2.35-3.69,5.13-4.77,8.35-1.08,3.22-1.62,6.71-1.62,10.47,0,4.2.61,7.94,1.82,11.22,1.22,3.28,2.87,6.06,4.95,8.33,2.08,2.27,4.53,3.99,7.33,5.17,2.8,1.18,5.78,1.78,8.95,1.78,1.8,0,3.62-.13,5.45-.4,1.83-.27,3.61-.72,5.32-1.38,1.72-.65,3.38-1.52,4.98-2.6Z" style="fill:#0070ba;"/><path d="M639.03,477.32c2.4,2.52,5.82,3.77,10.25,3.77,2.5,0,4.92-.38,7.25-1.15,2.33-.77,4.4-1.9,6.2-3.4l-3.7-6c-.27-.37-.52-.64-.75-.83-.23-.18-.53-.27-.9-.27-.3,0-.6.09-.9.27-.3.18-.64.38-1.03.58-.38.2-.83.39-1.35.58-.52.18-1.16.27-1.93.27-1.33,0-2.4-.45-3.2-1.35-.8-.9-1.2-2.15-1.2-3.75v-27.8h13.5v-8.8h-13.5v-16.15h-6.4c-.73,0-1.34.18-1.83.55-.48.37-.79.88-.92,1.55l-2.6,14-8.25,1.35v4.9c0,.87.24,1.52.72,1.95.48.43,1.06.65,1.73.65h5.2v28.65c0,4.43,1.2,7.91,3.6,10.43Z" style="fill:#0070ba;"/><rect x="313.64" y="516" width="12.35" height="74.3" style="fill:#0070ba;"/><path d="M354.94,524.05c0-1.1-.22-2.13-.65-3.1-.43-.97-1.01-1.8-1.73-2.5-.72-.7-1.56-1.26-2.52-1.68-.97-.42-2-.62-3.1-.62s-2.08.21-3.02.62c-.95.42-1.78.98-2.48,1.68-.7.7-1.26,1.53-1.67,2.5-.42.97-.62,2-.62,3.1s.21,2.07.62,3c.42.93.97,1.75,1.67,2.45s1.53,1.26,2.48,1.67c.95.42,1.96.62,3.02.62s2.13-.21,3.1-.62c.97-.42,1.81-.97,2.52-1.67s1.29-1.52,1.73-2.45c.43-.93.65-1.93.65-3Z" style="fill:#0070ba;"/><rect x="340.74" y="539" width="12.35" height="51.3" style="fill:#0070ba;"/><path d="M381.81,531.27c.42-1.28,1.02-2.32,1.83-3.1.8-.78,1.77-1.33,2.92-1.65,1.15-.32,2.46-.47,3.92-.47,1.1,0,2.07-.12,2.9-.35.83-.23,1.28-.83,1.35-1.8l.25-6.2c-2.03-.63-4.23-.95-6.6-.95-2.97,0-5.63.43-8,1.3-2.37.87-4.38,2.12-6.03,3.75-1.65,1.63-2.92,3.62-3.8,5.95-.88,2.33-1.33,4.97-1.33,7.9v3.8h-7.65v5.05c0,.9.29,1.6.88,2.1s1.36.83,2.33,1l4.45.7v42h12.35v-42.05h12.95v-8.8h-13.35v-3.4c0-1.9.21-3.49.62-4.78Z" style="fill:#0070ba;"/><path d="M444.04,565.97c.37-.15.66-.4.88-.75.22-.35.37-.83.45-1.45.08-.62.12-1.39.12-2.32,0-3.7-.55-6.99-1.65-9.88-1.1-2.88-2.63-5.32-4.6-7.3-1.97-1.98-4.31-3.49-7.02-4.52-2.72-1.03-5.69-1.55-8.93-1.55-3.83,0-7.27.67-10.32,2-3.05,1.33-5.63,3.14-7.75,5.42-2.12,2.28-3.74,4.97-4.88,8.05-1.13,3.08-1.7,6.38-1.7,9.88,0,4.5.65,8.46,1.95,11.88,1.3,3.42,3.08,6.28,5.35,8.6,2.27,2.32,4.93,4.07,8,5.25,3.07,1.18,6.38,1.78,9.95,1.78,1.8,0,3.66-.13,5.58-.4,1.92-.27,3.8-.72,5.65-1.38,1.85-.65,3.62-1.52,5.33-2.6,1.7-1.08,3.23-2.42,4.6-4.03l-3.6-4.5c-.27-.37-.58-.65-.95-.85-.37-.2-.8-.3-1.3-.3-.77,0-1.56.23-2.38.7-.82.47-1.77.98-2.85,1.55-1.08.57-2.35,1.08-3.8,1.55-1.45.47-3.17.7-5.17.7-4.07,0-7.33-1.23-9.8-3.7s-3.88-6.33-4.25-11.6h31.7c.57,0,1.03-.08,1.4-.23ZM411.19,558.75c.57-3.73,1.87-6.62,3.9-8.65s4.85-3.05,8.45-3.05c1.83,0,3.43.31,4.8.92,1.37.62,2.5,1.46,3.4,2.53.9,1.07,1.57,2.31,2,3.72.43,1.42.65,2.92.65,4.53h-23.2Z" style="fill:#0070ba;"/><path d="M478.16,584.1c2.08,2.27,4.53,3.99,7.33,5.17,2.8,1.18,5.78,1.78,8.95,1.78,1.8,0,3.62-.13,5.45-.4,1.83-.27,3.61-.72,5.32-1.38,1.72-.65,3.38-1.52,4.97-2.6,1.6-1.08,3.08-2.42,4.45-4.03l-3.55-4.5c-.5-.77-1.25-1.15-2.25-1.15-.77,0-1.46.24-2.07.72-.62.48-1.34,1.02-2.18,1.6-.83.58-1.86,1.12-3.07,1.6-1.22.48-2.81.72-4.78.72s-3.73-.38-5.3-1.12c-1.57-.75-2.9-1.85-4-3.3s-1.94-3.24-2.53-5.38c-.58-2.13-.88-4.57-.88-7.3s.27-4.99.8-7.08c.53-2.08,1.34-3.86,2.42-5.33,1.08-1.47,2.44-2.59,4.08-3.38,1.63-.78,3.53-1.17,5.7-1.17,1.7,0,3.12.19,4.28.58,1.15.38,2.14.82,2.97,1.3.83.48,1.55.92,2.15,1.3.6.38,1.22.58,1.85.58.67,0,1.18-.13,1.53-.4s.71-.63,1.08-1.1l3.25-4.5c-2.3-2.3-4.89-4.07-7.78-5.3-2.88-1.23-6.24-1.85-10.08-1.85-4.03,0-7.6.67-10.7,2-3.1,1.33-5.7,3.17-7.8,5.52-2.1,2.35-3.69,5.13-4.77,8.35-1.08,3.22-1.62,6.71-1.62,10.47,0,4.2.61,7.94,1.83,11.22,1.22,3.28,2.87,6.06,4.95,8.33Z" style="fill:#0070ba;"/><path d="M536.63,607.05c1.2,0,2.09-.22,2.67-.67.58-.45,1.06-1.11,1.42-1.98l27.95-65.4h-9.9c-.77,0-1.46.22-2.07.65-.62.43-1.06.98-1.33,1.65l-10.3,26.55c-.37.93-.71,1.85-1.03,2.75-.32.9-.61,1.83-.88,2.8-.2-.93-.43-1.87-.7-2.8-.27-.93-.58-1.83-.95-2.7l-10.95-26.6c-.27-.6-.67-1.13-1.2-1.6-.53-.47-1.3-.7-2.3-.7h-10.8l20.75,47.5-9.6,20.55h9.2Z" style="fill:#0070ba;"/><path d="M577.56,584.1c2.08,2.27,4.53,3.99,7.33,5.17,2.8,1.18,5.78,1.78,8.95,1.78,1.8,0,3.62-.13,5.45-.4,1.83-.27,3.61-.72,5.32-1.38,1.72-.65,3.38-1.52,4.98-2.6,1.6-1.08,3.08-2.42,4.45-4.03l-3.55-4.5c-.5-.77-1.25-1.15-2.25-1.15-.77,0-1.46.24-2.07.72-.62.48-1.34,1.02-2.18,1.6s-1.86,1.12-3.07,1.6c-1.22.48-2.81.72-4.78.72s-3.73-.38-5.3-1.12c-1.57-.75-2.9-1.85-4-3.3-1.1-1.45-1.94-3.24-2.53-5.38-.58-2.13-.88-4.57-.88-7.3s.27-4.99.8-7.08c.53-2.08,1.34-3.86,2.43-5.33,1.08-1.47,2.44-2.59,4.07-3.38,1.63-.78,3.53-1.17,5.7-1.17,1.7,0,3.12.19,4.28.58,1.15.38,2.14.82,2.97,1.3.83.48,1.55.92,2.15,1.3.6.38,1.22.58,1.85.58.67,0,1.17-.13,1.53-.4.35-.27.71-.63,1.08-1.1l3.25-4.5c-2.3-2.3-4.89-4.07-7.78-5.3-2.88-1.23-6.24-1.85-10.08-1.85-4.03,0-7.6.67-10.7,2-3.1,1.33-5.7,3.17-7.8,5.52-2.1,2.35-3.69,5.13-4.77,8.35-1.08,3.22-1.62,6.71-1.62,10.47,0,4.2.61,7.94,1.82,11.22,1.22,3.28,2.87,6.06,4.95,8.33Z" style="fill:#0070ba;"/><rect x="622.73" y="516" width="12.35" height="74.3" style="fill:#0070ba;"/><path d="M690.98,565.97c.37-.15.66-.4.88-.75.22-.35.37-.83.45-1.45.08-.62.12-1.39.12-2.32,0-3.7-.55-6.99-1.65-9.88-1.1-2.88-2.63-5.32-4.6-7.3-1.97-1.98-4.31-3.49-7.03-4.52s-5.69-1.55-8.92-1.55c-3.83,0-7.27.67-10.33,2-3.05,1.33-5.63,3.14-7.75,5.42s-3.74,4.97-4.88,8.05c-1.13,3.08-1.7,6.38-1.7,9.88,0,4.5.65,8.46,1.95,11.88,1.3,3.42,3.08,6.28,5.35,8.6,2.27,2.32,4.93,4.07,8,5.25,3.07,1.18,6.38,1.78,9.95,1.78,1.8,0,3.66-.13,5.57-.4s3.8-.72,5.65-1.38c1.85-.65,3.62-1.52,5.33-2.6,1.7-1.08,3.23-2.42,4.6-4.03l-3.6-4.5c-.27-.37-.58-.65-.95-.85-.37-.2-.8-.3-1.3-.3-.77,0-1.56.23-2.38.7-.82.47-1.77.98-2.85,1.55-1.08.57-2.35,1.08-3.8,1.55s-3.17.7-5.17.7c-4.07,0-7.33-1.23-9.8-3.7-2.47-2.47-3.88-6.33-4.25-11.6h31.7c.57,0,1.03-.08,1.4-.23ZM658.13,558.75c.57-3.73,1.87-6.62,3.9-8.65,2.03-2.03,4.85-3.05,8.45-3.05,1.83,0,3.43.31,4.8.92,1.37.62,2.5,1.46,3.4,2.53.9,1.07,1.57,2.31,2,3.72.43,1.42.65,2.92.65,4.53h-23.2Z" style="fill:#0070ba;"/><path d="M805.06,152.12c-3.57,0-6.92,1.39-9.44,3.91-2.52,2.52-3.91,5.87-3.91,9.44s1.39,6.92,3.91,9.44c2.52,2.52,5.87,3.91,9.44,3.91s6.92-1.39,9.43-3.91c2.52-2.52,3.91-5.87,3.91-9.44s-1.39-6.92-3.91-9.44c-2.52-2.52-5.87-3.91-9.43-3.91Z" style="fill:#0070ba;"/><path d="M730.18,218.63c0,11.97,9.74,21.71,21.71,21.71h106.34c11.97,0,21.71-9.74,21.71-21.71v-106.34c0-11.97-9.74-21.71-21.71-21.71h-106.34c-11.97,0-21.71,9.74-21.71,21.71v106.34ZM851.96,165.46c0,1.4-.57,2.77-1.56,3.75-.98.98-2.34,1.55-3.74,1.55h-18.23c-1.17,5.14-4.02,9.78-8.09,13.15-4.29,3.54-9.71,5.5-15.27,5.5s-10.98-1.95-15.27-5.5c-4.07-3.37-6.92-8.02-8.09-13.15h-18.23c-1.4,0-2.77-.57-3.75-1.56-.98-.98-1.55-2.34-1.55-3.74s.57-2.77,1.56-3.75c.98-.98,2.34-1.55,3.75-1.55h18.23c1.17-5.14,4.02-9.78,8.09-13.15,4.28-3.54,9.71-5.5,15.27-5.5s10.98,1.95,15.27,5.5c4.07,3.37,6.92,8.02,8.09,13.15h18.23c1.4,0,2.77.57,3.75,1.56.98.98,1.55,2.34,1.55,3.75Z" style="fill:#0070ba;"/><path d="M828.42,160.16c-1.17-5.14-4.02-9.78-8.09-13.15-4.29-3.54-9.71-5.5-15.27-5.5s-10.98,1.95-15.27,5.5c-4.07,3.37-6.92,8.02-8.09,13.15h-18.23c-1.4,0-2.77.57-3.75,1.55-.99.98-1.56,2.35-1.56,3.75s.57,2.77,1.55,3.74c.98.99,2.35,1.56,3.75,1.56h18.23c1.17,5.14,4.02,9.78,8.09,13.15,4.28,3.54,9.71,5.5,15.27,5.5s10.98-1.95,15.27-5.5c4.07-3.37,6.92-8.02,8.09-13.15h18.23c1.4,0,2.77-.57,3.74-1.55.99-.98,1.56-2.35,1.56-3.75s-.57-2.77-1.55-3.75c-.98-.99-2.35-1.56-3.75-1.56h-18.23ZM818.4,165.46c0,3.57-1.39,6.92-3.91,9.44-2.52,2.52-5.87,3.91-9.43,3.91s-6.92-1.39-9.44-3.91c-2.52-2.52-3.91-5.87-3.91-9.44s1.39-6.92,3.91-9.44c2.52-2.52,5.87-3.91,9.44-3.91s6.92,1.39,9.43,3.91c2.52,2.52,3.91,5.87,3.91,9.44Z" style="fill:#fff;"/><path d="M158.82,218.64c-3.56,0-6.92,1.39-9.43,3.91-2.52,2.52-3.91,5.87-3.91,9.44s1.39,6.92,3.91,9.44c2.52,2.52,5.87,3.91,9.43,3.91s6.92-1.39,9.44-3.91c2.52-2.52,3.91-5.87,3.91-9.44s-1.39-6.92-3.91-9.44c-2.52-2.52-5.87-3.91-9.44-3.91Z" style="fill:#cae3f4;"/><path d="M106.7,306.86h105.29c11.97,0,21.71-9.74,21.71-21.71v-106.34c0-11.97-9.74-21.71-21.71-21.71h-106.34c-11.97,0-21.71,9.74-21.71,21.71v106.34c0,11.97,9.74,21.71,21.71,21.71h1.05ZM200.41,237.28h-18.23c-1.17,5.14-4.02,9.78-8.09,13.15-4.29,3.54-9.71,5.5-15.27,5.5s-10.98-1.95-15.27-5.5c-4.07-3.37-6.92-8.02-8.09-13.15h-18.23c-1.4,0-2.77-.57-3.75-1.56-.99-.98-1.55-2.35-1.55-3.75s.57-2.77,1.56-3.75c.98-.98,2.35-1.55,3.75-1.55h18.23c1.17-5.14,4.02-9.78,8.09-13.15,4.29-3.54,9.71-5.5,15.27-5.5s10.98,1.95,15.27,5.5c4.07,3.37,6.92,8.02,8.09,13.15h18.23c1.4,0,2.77.57,3.75,1.56.98.98,1.55,2.34,1.55,3.75s-.57,2.77-1.56,3.75c-.98.98-2.34,1.55-3.75,1.55Z" style="fill:#cae3f4;"/><path d="M204.16,228.23c-.98-.99-2.35-1.56-3.75-1.56h-18.23c-1.17-5.14-4.02-9.78-8.09-13.15-4.29-3.54-9.71-5.5-15.27-5.5s-10.98,1.95-15.27,5.5c-4.07,3.37-6.92,8.02-8.09,13.15h-18.23c-1.4,0-2.77.57-3.75,1.55-.99.98-1.56,2.35-1.56,3.75s.57,2.77,1.55,3.75c.98.99,2.35,1.56,3.75,1.56h18.23c1.17,5.14,4.02,9.78,8.09,13.15,4.29,3.54,9.71,5.5,15.27,5.5s10.98-1.95,15.27-5.5c4.07-3.37,6.92-8.02,8.09-13.15h18.23c1.4,0,2.77-.57,3.75-1.55.99-.98,1.56-2.35,1.56-3.75s-.57-2.77-1.55-3.75ZM172.16,231.98c0,3.57-1.39,6.92-3.91,9.44-2.52,2.52-5.87,3.91-9.44,3.91s-6.92-1.39-9.43-3.91c-2.52-2.52-3.91-5.87-3.91-9.44s1.39-6.92,3.91-9.44c2.52-2.52,5.87-3.91,9.43-3.91s6.92,1.39,9.44,3.91c2.52,2.52,3.91,5.87,3.91,9.44Z" style="fill:#0070ba;"/><path d="M841.18,789.31c3.56,0,6.92-1.39,9.43-3.91,2.52-2.52,3.91-5.87,3.91-9.43s-1.39-6.92-3.91-9.44c-2.52-2.52-5.87-3.91-9.43-3.91s-6.92,1.39-9.44,3.91c-2.52,2.52-3.91,5.87-3.91,9.44s1.39,6.92,3.91,9.43c2.52,2.52,5.87,3.91,9.44,3.91Z" style="fill:#cae3f4;"/><path d="M894.35,701.09h-106.34c-11.97,0-21.71,9.74-21.71,21.71v106.34c0,11.97,9.74,21.71,21.71,21.71h106.34c11.97,0,21.71-9.74,21.71-21.71v-106.34c0-11.97-9.74-21.71-21.71-21.71ZM799.59,770.67h18.23c1.17-5.14,4.02-9.78,8.09-13.15,4.29-3.54,9.71-5.5,15.27-5.5s10.98,1.95,15.27,5.5c4.07,3.37,6.92,8.02,8.09,13.15h18.23c1.4,0,2.77.57,3.75,1.56.98.98,1.55,2.34,1.55,3.74s-.57,2.77-1.56,3.75c-.98.98-2.34,1.55-3.75,1.55h-18.23c-1.17,5.14-4.02,9.78-8.09,13.15-4.29,3.54-9.71,5.5-15.27,5.5s-10.98-1.95-15.27-5.5c-4.07-3.37-6.92-8.02-8.09-13.15h-18.23c-1.4,0-2.77-.57-3.75-1.56-.98-.98-1.55-2.34-1.55-3.74s.57-2.77,1.56-3.75c.98-.98,2.34-1.55,3.74-1.55Z" style="fill:#cae3f4;"/><path d="M795.84,779.72c.98.99,2.35,1.56,3.75,1.56h18.23c1.17,5.14,4.02,9.78,8.09,13.15,4.29,3.54,9.71,5.5,15.27,5.5s10.98-1.95,15.27-5.5c4.07-3.37,6.92-8.02,8.09-13.15h18.23c1.4,0,2.77-.57,3.75-1.55.99-.98,1.56-2.35,1.56-3.75s-.57-2.77-1.55-3.74c-.98-.99-2.35-1.56-3.75-1.56h-18.23c-1.17-5.14-4.02-9.78-8.09-13.15-4.29-3.54-9.71-5.5-15.27-5.5s-10.98,1.95-15.27,5.5c-4.07,3.37-6.92,8.02-8.09,13.15h-18.23c-1.4,0-2.77.57-3.74,1.55-.99.98-1.56,2.35-1.56,3.75s.57,2.77,1.55,3.74ZM827.84,775.97c0-3.57,1.39-6.92,3.91-9.44,2.52-2.52,5.87-3.91,9.44-3.91s6.92,1.39,9.43,3.91c2.52,2.52,3.91,5.87,3.91,9.44s-1.39,6.92-3.91,9.43c-2.52,2.52-5.87,3.91-9.43,3.91s-6.92-1.39-9.44-3.91c-2.52-2.52-3.91-5.87-3.91-9.43Z" style="fill:#0070ba;"/><rect x="190.7" y="813.66" width="41.01" height="41.01" transform="translate(-531.13 398.99) rotate(-45.41)" style="fill:#66cb92;"/><path d="M285.71,780.45c-.04-5.8-2.34-11.24-6.47-15.31-4.09-4.03-9.5-6.25-15.24-6.25h-.16l-104.85.75h-1.49c-5.8.05-11.24,2.35-15.31,6.48-4.07,4.13-6.29,9.6-6.25,15.4l.76,106.34c.09,11.92,9.81,21.56,21.71,21.56h.16l106.34-.77c11.97-.09,21.64-9.9,21.56-21.87v-1.42s-.77-104.92-.77-104.92ZM249.89,838.37l-33.91,34.4c-1.25,1.26-2.9,1.88-4.54,1.88s-3.21-.6-4.44-1.8l-34.4-33.91c-2.49-2.48-2.51-6.5-.08-8.99h.01s33.89-34.4,33.89-34.4c2.48-2.49,6.5-2.51,8.99-.08l34.4,33.9c2.48,2.47,2.51,6.5.08,8.99Z" style="fill:#66cb92;"/><path d="M206.43,795.55l-33.89,34.38h-.01c-2.43,2.5-2.41,6.53.08,9l34.4,33.91c1.23,1.2,2.84,1.8,4.44,1.8s3.29-.63,4.54-1.88l33.91-34.4c2.43-2.49,2.4-6.51-.08-8.99l-34.4-33.9c-2.49-2.43-6.51-2.41-8.99.08ZM211.42,863.16l-29.21-28.79,28.79-29.21,29.21,28.79-28.79,29.21Z" style="fill:#f2f2f2;"/></svg>